<svg xmlns="http://www.w3.org/2000/svg" viewBox="0 0 550 550" style="enable-background:new 0 0 550 550" xml:space="preserve"><path style="fill:#333;stroke:#000;stroke-width:8;stroke-miterlimit:10" d="M415.2 425.9c14.6-9.6 30.8-21.8 31.4-39.3.3-6.9-2.1-13.5-3.1-20.3-2.1-13.5.7-27.3 4.3-40.5 2-7.5 4.3-15.1 8.8-21.5 5.8-8.3 15-14 25-15.5 9.5-1.4 21.1 2.6 23.4 11.9 2.3 9.8-6.6 18.3-13.8 25.3-7.2 6.9-13.5 14.5-19 22.8-2.9 4.4-5.6 9.2-6.5 14.4-.8 5.1.2 10.3.3 15.5.4 15.1-6.8 29.7-16.8 41-10 11.4-22.7 20-35.2 28.6"/><path style="opacity:.3;enable-background:new" d="M456.8 305.9c7.1-13.9 36.1-10.2 31.9 7.4-11.7 12.4-22.4 20.1-22.1 39.5 9.3-9.1 18.7-18.2 28-27.3 5.3-4.2 7.3-10.5 7.4-17.1 1.1-7.8-.6-20-10.5-20.2-7.7.3-12.4 4.1-20 2.7"/><path style="fill:#333" d="M282.7 472.4s23.7 6.9 32.6 10.3c0 0 11.2 5.8 20.2 3.2 20.1 5 48.9 5.5 75.4-30.2 6.8-9.2 10.2-77.4-10.5-124.7-5.5-37.1 36.8-27.5 18.5-116.2 0 0-2.3-6.4-2.8-33.8 0 0 5.1-33.5-17.5-46.6 0 0-6.9-12.4-23.2-5.1 0 0-11.7-4.6-17.5 2.3 0 0 2.1-3.4-4.4-22.3-3-23.4-17.7-83.3-60.9-35.1 0 0-9.5 11.7-31.7 14.9-13.7 1.5-38 8.7-52.9 5.9-4.3-1.7-24-11.3-47.7-16.7 0 0-17-1.7-16 20 0 0-2.4 27.4 0 30.4 9.9 33.5-22.4 74.3 17.4 128.8 0 0-5.3 14.3-.3 25.5 0 0-2.3 12.5 1.7 16.2 0 0-5.3 6.7-5.7 14-9.5 42.2-52.5 108.4.7 149.8 0 0 4.3 11.6 16.8 8.8 0 0 6.2 4.6 15.4 1.1 0 0 5.8 3.2 14.4-.1 0 0 10.5 13.6 26.7 14.8 0 0 12 5.3 19.8-1.5 0 0 16.7 1.8 25-14.4-.1 0 2.9 2.2 6.5.7z"/><path style="fill:none;stroke:#000;stroke-width:8;stroke-miterlimit:10" d="M284.6 474.1s22.7 8 31.5 11.4c0 0 9 8.2 21.2 3.2 20.9 5.8 48.9 4.5 75.4-31.2 6.8-9.2 6-77.4-14.7-124.7-5.5-37.3 40.9-27.7 22.7-116.2 0 0-2.3-6.4-2.8-33.8 0 0 5.1-33.5-17.5-46.6 0 0-6.9-12.4-23.2-5.1 0 0-11.7-4.6-17.5 2.3 0 0 2.1-3.4-4.4-22.3-3-23.4-17.7-83.3-60.9-35.1 0 0-9.5 11.7-31.7 14.9-13.7 1.5-38 8.7-52.9 5.9-4.3-1.7-24-11.3-47.7-16.7 0 0-17-1.7-16 20 0 0-2.4 27.4 0 30.4 9.9 33.5-22.4 74.3 17.4 128.8 0 0-5.3 14.3-.3 25.5 0 0-2.3 12.5 1.7 16.2 0 0-5.3 6.7-5.7 14-9.5 42.2-52.5 108.4.7 149.8 0 0 4.3 11.6 16.8 8.8 0 0 6.2 4.6 15.4 1.1 0 0 5.8 3.2 14.4-.1 0 0 10.5 13.6 26.7 14.8 0 0 12 5.3 19.8-1.5 0 0 16.7 1.8 25-14.4 0 0 3.1 2.1 6.6.6z"/><path style="fill:none;stroke:#000;stroke-width:8;stroke-miterlimit:10" d="M366.1 257.3c19.2-51.4-3-56.7.9-68.8 9.9-30.9-8.7-50-8.7-50s1-7.9 5.5-7.9m-86.7 346.3c0-.2 1.9-3.5-3.3-26.1-6.5-28.6 4-41.5-11.8-62.5 0 0-9.1-11.7-31.3-30.4m-25.9 116.2s1.7-11.6-3.8-33.9c-2.6-10.5 14.7-28.4.6-47.1m101.2 85.1s1.8-20.1 13.5-25.2c0 0 12.5-5.5 18.5 1 0 0 17.4-7 24.8 5.4 1.1 1.8 24.3-51.3-14.9-90.9 0 0-1.1-23.6-4.3-33.4"/><path style="fill:none;stroke:#000;stroke-width:8;stroke-miterlimit:10" d="M369.8 278.7c-1.1 4.2-2.5 11.1-13.6 22.9-32 27.6-203.6 52.8-193.6-20 0 0-5-5.3.9-21.6 9.9 15.9 44.7 24.8 66 26.2 30.1 2 38.5.8 52.8-3.9 9.7-3.2 20.5-16.9 45.9-17.7 0 0 4.8-10.2 30.1-8.7 0-.1 17.4 1.4 11.5 22.8z"/><path d="M161.1 290.9c1.2-2.1 1.8-4.5 1.7-7-.1-2.6-1-5.1-2.5-7.1 1.4-2 2.2-5.1.8-9.6l-.3-1-1-.2c-.4-.3-1.4-1.4-2.2-2.4-4.2-5-13.1-15.4-30.7-15.4h-5.5l4.2 3.5c.1.1 14.4 12.3 17.3 23.6-2.5 2.5-3.9 6-3.7 9.8.2 3.6 1.7 6.8 4.3 9.1.1 9.6-12.7 22.7-12.8 22.9l-4.3 4.4 6-1c23.5-3.8 30.6-20.4 30.9-21.1l.1-.2v-.2c.7-4.1-.6-6.5-2.3-8.1z"/><path style="opacity:.3;enable-background:new" d="m262 388.4-28.1-33.6s48.2 2 63.4-3.2c24.1-8.2 43.5-19 45.3-16.1 2.3 3.6 7.5 33.1 7.5 33.1l18.9 35.7-9.3 55.2-24.8-5.4-9.7-4-16.1 9.5-6.2 18.7-25.1-4.1c-.1-.1-2.2-83-15.8-85.8zM370.8 184s21.8-8.2 32.2 2.8c3 3.2 19.1 92.6-5.4 97.8-14.5 3.1-22.9 1.6-25.7-12.5-2.8-14.1 0-29.6 0-29.6s5.7-26.8 3.5-31.6c-8.9-19.2-4.6-26.9-4.6-26.9zm-75.3 59.1-34.2 13.8-37.1-9.3 38.1 17.1 33.2-21.6zm-84.2-23.7c2 12.1 11.2 23.9 4.6 25-6.6 1.1-13.6-7.9-15.6-20s1.8-22.8 8.5-23.9c6.6-1 .6 6.8 2.5 18.9zm92.9-5.4c1.1 13.1-5.4 27.7 1.8 27.1 7.2-.6 12.1-11.7 11-24.8s-7.8-23.2-15-22.6c-7.3.6 1 7.2 2.2 20.3z"/><path style="opacity:.3;enable-background:new" d="M161.5 424.3c9.7 12.2 24.7 20.2 40.1 18.7 3.5 9.3 8.2 20.8 17.7 23.7 18.6 2.2 41.7 5.6 54.6-11.2-5.5-10.4-5.9-21.3-6.3-33.1-.3-9.5 2.6-20.3-3.3-27.7 14.3 10.2 26.7 27.1 46.1 25.3 16.7-.7 40.9 6.1 51.9-9.2 2.7 5.5 1.4 33.9 5.6 38.3 3.7 3.9 14.2-19.5 19.3-17.9 9.1 2.9 13.4 7.9 26.2-2.7 10.7 63.1-78.1 75.3-114.6 47.1-14.6-4.5-28.7.2-39 10.8-17.1 13-34.3 0-48.4-10.1-15.5-2.9-33.6 2.6-47.8-6.6-28.3-11.6-36.5-93.1-19.4-79.2 5.9 10.7 8.6 24.4 17.3 33.8zm31.8-163.5c68 17.3 81.8 18 146.8-18.4 20.8-11.7 39.1 14.9 14.3 11.9-12.2-1.5-16.6 1.2-27.1 6.7-12.9 6.6-31.9 16.6-46.4 20.2-104.8 25.9-151.9-36.7-87.6-20.4z"/></svg>