<?xml version="1.0" encoding="utf-8"?>
<!-- Generator: Adobe Illustrator 26.0.3, SVG Export Plug-In . SVG Version: 6.00 Build 0)  -->
<svg version="1.1" id="color_2" xmlns="http://www.w3.org/2000/svg" xmlns:xlink="http://www.w3.org/1999/xlink" x="0px" y="0px"
	 viewBox="0 0 550 550" style="enable-background:new 0 0 550 550;" xml:space="preserve">
<path style="fill:#E28813;" d="M246.1,193.1c-1.2,1.5-1.1,3.6,0.2,4.8l9.2,11.9c1.4,1.2,3.5,0.9,4.7-0.6l7.8-13.9
	c1.2-1.5,1.1-3.6-0.2-4.8c0,0-1.1-1.6-11.1-0.4C246.8,191.4,246.1,193.1,246.1,193.1L246.1,193.1z M202.9,216.5
	c3.3,0.2,6.1-1.8,6.3-4.7c0.2-2.8-2.3-5.3-5.6-5.6l-35,1.7c-0.9-0.1-1.6,0.5-1.6,1.2c-0.1,0.7,0.6,1.4,1.4,1.4L202.9,216.5
	L202.9,216.5z M205.4,229c3.2-0.7,5.4-3.5,4.8-6.3c-0.6-2.8-3.7-4.4-6.9-3.7l-33.1,11.5c-0.8,0.2-1.4,0.9-1.2,1.6
	c0.2,0.7,1,1.2,1.8,1L205.4,229L205.4,229z M210.8,238.8c2.6-1.2,3.8-4,2.8-6.1c-1-2.2-3.9-3-6.5-1.8l-25.3,16c-0.7,0.3-1,1-0.7,1.6
	s1,0.8,1.7,0.5L210.8,238.8z M312.2,208.8c-3.4,1.1-6.8-0.3-7.8-3.2s1-6.1,4.3-7.2l36.7-7.4c0.9-0.3,1.8,0.1,2,0.8s-0.3,1.6-1.1,1.9
	L312.2,208.8L312.2,208.8z M312.8,222.3c-3.5,0.1-6.5-2.2-6.6-5.3c-0.1-3,2.7-5.6,6.2-5.7l37.3,3.4c0.9,0,1.7,0.6,1.7,1.4
	c0,0.8-0.7,1.4-1.6,1.5L312.8,222.3L312.8,222.3z M309.8,233.9c-3-0.6-5-3.1-4.5-5.7c0.5-2.5,3.3-4.1,6.3-3.5l30.5,10
	c0.8,0.2,1.3,0.8,1.2,1.5c-0.1,0.7-0.9,1.1-1.6,0.9L309.8,233.9z"/>
<g>
	<path style="fill:#E28813;" d="M200.5,127.7c0.7,2.5-0.7,5.2-3.3,5.9c-2.5,0.7-5.2-0.7-5.9-3.3l-1.2-12.2c-0.4-1.4,0.4-2.8,1.7-3.2
		s2.8,0.4,3.2,1.7C195,116.6,200.5,127.7,200.5,127.7z M190,134c0.4,2.2-1.1,4.2-3.3,4.6c-2.2,0.4-4.2-1.1-4.6-3.3l0.2-10.2
		c-0.2-1.2,0.6-2.3,1.7-2.5c1.2-0.2,2.3,0.6,2.5,1.7L190,134L190,134z"/>
</g>
<g>
	<path style="fill:#E28813;" d="M295.7,118.5c-0.1,2.9,2.2,5.4,5.1,5.5s5.4-2.2,5.5-5.1l-2-13.5c0.1-1.6-1.2-2.9-2.7-3
		c-1.6-0.1-2.9,1.2-3,2.7L295.7,118.5z M308.7,122.4c0.2,2.5,2.3,4.3,4.8,4.1c2.5-0.2,4.3-2.3,4.1-4.8l-3-11
		c-0.1-1.3-1.2-2.3-2.6-2.2c-1.3,0.1-2.3,1.2-2.2,2.6L308.7,122.4L308.7,122.4z"/>
</g>
<circle style="fill:#E28813;stroke:#000000;stroke-width:8;stroke-miterlimit:10;" cx="273.6" cy="332.3" r="33.2"/>
</svg>
