<?xml version="1.0" encoding="utf-8"?>
<!-- Generator: Adobe Illustrator 26.0.3, SVG Export Plug-In . SVG Version: 6.00 Build 0)  -->
<svg version="1.1" id="color_1" xmlns="http://www.w3.org/2000/svg" xmlns:xlink="http://www.w3.org/1999/xlink" x="0px" y="0px"
	 viewBox="0 0 550 550" style="enable-background:new 0 0 550 550;" xml:space="preserve">
<path style="fill:#CC0000;" d="M182.4,462.9c0,2.1-1.7,3.8-3.8,3.8s-3.8-1.7-3.8-3.8l2.5-16.6c0-0.7,1.2-2.9,1.2-2.9
	s1.2,2.2,1.2,2.9L182.4,462.9L182.4,462.9z M194.5,462.9c0,2.1-1.7,3.8-3.8,3.8s-3.8-1.7-3.8-3.8l2.5-16.6c0-0.7,1.2-2.9,1.2-2.9
	s1.2,2.2,1.2,2.9L194.5,462.9L194.5,462.9z M240.9,476.9c0.2,2.5-1.7,4.7-4.3,4.9s-4.7-1.7-4.9-4.3l1.7-20.5
	c-0.1-0.8,1.2-3.6,1.2-3.6s1.7,2.6,1.7,3.4L240.9,476.9z M255.7,475.9c0.2,2.5-1.7,4.7-4.3,4.9s-4.7-1.7-4.9-4.3l1.7-20.5
	c-0.1-0.8,1.2-3.6,1.2-3.6s1.7,2.6,1.7,3.4L255.7,475.9z M333.8,477.9c0,1.8-1.5,3.3-3.3,3.3s-3.3-1.5-3.3-3.3l2.2-14.6
	c0-0.6,1.1-2.5,1.1-2.5s1.1,1.9,1.1,2.5L333.8,477.9L333.8,477.9z M344.5,477.9c0,1.8-1.5,3.3-3.3,3.3s-3.3-1.5-3.3-3.3l2.2-14.6
	c0-0.6,1.1-2.5,1.1-2.5s1.1,1.9,1.1,2.5L344.5,477.9L344.5,477.9z M388.3,145.8c-0.3-2.3,1.2-4.4,3.5-4.7s4.4,1.2,4.7,3.5l-0.1,18.7
	c0.1,0.7-0.9,3.4-0.9,3.4s-1.7-2.2-1.8-3L388.3,145.8L388.3,145.8z M375,147.8c-0.3-2.3,1.2-4.4,3.5-4.7s4.4,1.2,4.7,3.5l-0.1,18.7
	c0.1,0.7-0.9,3.4-0.9,3.4s-1.7-2.2-1.8-3L375,147.8L375,147.8z M272.5,219.7c-10.4,0.1-14.5-15.6-14.5-15.6
	c-0.2,0.9-0.3,1.8-0.4,2.7c-0.2-0.8-0.5-1.7-0.8-2.6c0,0-1.2,16.2-11.4,17.9c-10.2,1.8-16.4-8.4-16.4-8.4c2,11.3,9.5,14.7,17.2,13.3
	c5.5-1,11.2-4.7,12.2-11.9c2.3,6.9,8.6,9.5,14.1,9.5c7.9-0.1,14.6-4.8,14.5-16.2C287.1,208.5,282.9,219.6,272.5,219.7L272.5,219.7z
	 M366.1,280.6c-1.3,3.9-0.1,13.3-13.1,22.1c-45,30.3-200.5,40.2-186.3-15c0,0-5.5-14.9-0.1-23.1c9.5,15.3,44.1,21.8,64.5,23.1
	c29,1.9,37.1,0.8,50.8-3.8c9.3-3.1,19.7-16.3,44.2-17.1c0,0,4.6-9.8,29-8.4C355.1,258.6,373.3,259.3,366.1,280.6L366.1,280.6z
	 M332.6,72.9L332.6,72.9c0-0.1-2.3-5.2-7.1-6.1c-4.8-0.9-6.4,1.4-8.8,2.9l-15.6,12.4c-6.7,5.8-2.6,16.5,7.2,18.6l20,3.9
	c8.5,1.8,16.3-4.1,15.2-11.4v-0.1c-0.2-1.2-0.6-2.4-1.2-3.5C342.3,89.6,332.6,72.9,332.6,72.9z M166.7,90.2c-0.1,0-4.8-1.6-8.3,0.9
	c-3.5,2.6-2.9,5-3.4,7.5l-1.4,17.7c-0.3,7.9,9.2,11.7,16.5,6.6l14.6-10.7c6.3-4.4,7.2-13.1,1.8-16.8c-0.9-0.6-1.9-1.1-3-1.4
	L166.7,90.2L166.7,90.2z"/>
<ellipse transform="matrix(0.9871 -0.1601 0.1601 0.9871 -25.3626 65.2437)" style="fill:#CC0000;" cx="392.2" cy="190" rx="15.3" ry="20.6"/>
<path style="fill:#CC0000;" d="M155.9,273.7c0.9,0.7,1.1-4.7,0.4-6.5c-0.3-0.9-10.7-13.7-26.1-15.9c0,0,14.7,13.5,15.4,23
	c0,0,1.7-1.9,4.2-2C149.8,272.3,153.3,271.7,155.9,273.7L155.9,273.7z M158.4,283.9c0.2,4.4-1.9,8.1-5.9,8.2c-4,0.2-8.4-3.2-8.6-7.6
	s3.9-8.1,7.9-8.2S158.2,279.6,158.4,283.9z M157.5,294.7c0.8-0.7,1.5,3.4,1.1,4.3c-1.3,3.7-9.2,14.1-22.7,17.1
	c0,0,11.6-12.4,10.3-20.4c0,0,2.2,1.2,4.7,0.9C151,296.7,155.3,296.8,157.5,294.7L157.5,294.7z"/>
</svg>
