<?xml version="1.0" encoding="UTF-8"?>
<svg enable-background="new 0 0 170 170" version="1.1" viewBox="0 0 170 170" xml:space="preserve" xmlns="http://www.w3.org/2000/svg">
<style type="text/css">
	.st0{fill:#CC0000;}
</style>

	
		<path class="st0" d="m86.8 45.8c-2.9 0-5.1-2.3-5.1-5.1v-3.9c0-2.9 2.3-5.1 5.1-5.1s5.1 2.3 5.1 5.1v3.9c0 2.8-2.3 5.1-5.1 5.1zm0-12.6c-1.9 0-3.5 1.6-3.5 3.5v3.9c0 1.9 1.6 3.5 3.5 3.5s3.5-1.6 3.5-3.5v-3.9c0-1.9-1.6-3.5-3.5-3.5z"/>
		<path class="st0" d="m92.1 58.1h-10.9c-2 0-3.7-1.7-3.7-3.7v-4c0-2 3.1-3.5 3.4-3.7h0.1l4.3-1.2c0.5-0.1 0.8 0.1 0.9 0.6s-0.1 0.8-0.6 0.9l-4.3 1.2c-1 0.5-2.4 1.5-2.4 2.2v4c0 1.2 0.9 2.1 2.1 2.1h11c1.2 0 2.1-0.9 2.1-2.1v-4c0-0.7-1.4-1.8-2.4-2.2l-4.1-1.2c-0.5-0.1-0.6-0.6-0.6-1 0.1-0.5 0.6-0.6 0.9-0.6l4.2 1.2h0.1c0.4 0.2 3.4 1.6 3.4 3.7v4c0.2 2-1.4 3.8-3.5 3.8z"/>
		<path class="st0" d="m85.5 47c-0.5 0-0.8-0.4-0.8-0.8v-1.2c0-0.5 0.4-0.8 0.8-0.8 0.5 0 0.8 0.4 0.8 0.8v1.1c0 0.5-0.4 0.9-0.8 0.9z"/>
		<path class="st0" d="M88,47c-0.5,0-0.8-0.4-0.8-0.8V45c0-0.5,0.4-0.8,0.8-0.8s0.8,0.4,0.8,0.8v1.1C88.7,46.6,88.3,47,88,47z"/>
		<path class="st0" d="m86.7 51.4c-1.9 0-3.3-1.9-3.3-4.3 0-0.3 0-0.6 0.1-0.7 0.1-0.5 0.5-0.7 0.9-0.6s0.7 0.5 0.6 0.9v0.6c0 1.5 0.8 2.7 1.8 2.7 0.9 0 1.8-1.2 1.8-2.7v-0.6c-0.1-0.5 0.3-0.8 0.6-0.9 0.5-0.1 0.8 0.3 0.9 0.6 0 0.3 0.1 0.6 0.1 0.7-0.2 2.4-1.7 4.3-3.5 4.3z"/>
		<path class="st0" d="m88.3 37.6c-0.5 0-0.9-0.1-1.4-0.3-0.6-0.3-0.9-0.6-1.2-0.9s-0.4-0.4-0.6-0.5c-0.6-0.1-1.3 0.4-2.2 1.3-0.3 0.3-0.8 0.4-1.1 0-0.3-0.3-0.4-0.8 0-1.1 1.4-1.5 2.6-2 3.7-1.8 0.6 0.2 1 0.6 1.4 0.9 0.2 0.2 0.4 0.5 0.6 0.6 0.7 0.4 1.8 0.1 3.1-0.6 0.4-0.2 0.8-0.1 1.1 0.3s0.1 0.8-0.3 1.1c-1.1 0.6-2.1 1-3.1 1z"/>
		<path class="st0" d="m86.8 62.1c-9.4 0-17.1-7.7-17.1-17.1s7.7-17.1 17.1-17.1 17.1 7.7 17.1 17.1-7.7 17.1-17.1 17.1zm0-32.6c-8.6 0-15.6 6.9-15.6 15.6s6.9 15.6 15.6 15.6 15.6-6.9 15.6-15.6-7-15.6-15.6-15.6z"/>
		<path class="st0" d="m98.9 34-1.1-1.1 2.9-2.9c0.3-0.3 0.8-0.3 1.1 0s0.3 0.8 0 1.1l-2.9 2.9z"/>
		<path class="st0" d="m103.2 32.1c-0.9 0-1.9-0.4-2.5-1-1.4-1.4-1.4-3.6 0-5s3.6-1.4 5 0 1.4 3.6 0 5c-0.7 0.7-1.6 1-2.5 1zm0-5.4c-0.5 0-1 0.2-1.4 0.6-0.7 0.7-0.7 2 0 2.8 0.7 0.7 2 0.7 2.8 0 0.7-0.7 0.7-2 0-2.8-0.4-0.4-0.9-0.6-1.4-0.6z"/>
		<path class="st0" d="m72.3 60.3c-0.2 0-0.4-0.1-0.6-0.2-0.3-0.3-0.3-0.8 0-1.1l2.9-2.9c0.3-0.3 0.8-0.3 1.1 0s0.3 0.8 0 1.1l-3 3s-0.2 0.1-0.4 0.1z"/>
		<path class="st0" d="m70.4 65c-0.9 0-1.9-0.4-2.5-1-1.4-1.4-1.4-3.6 0-5s3.6-1.4 5 0 1.4 3.6 0 5c-0.8 0.6-1.6 1-2.5 1zm0-5.5c-0.5 0-1 0.2-1.4 0.6-0.7 0.7-0.7 2 0 2.8 0.7 0.7 2 0.7 2.8 0s0.7-2 0-2.8c-0.4-0.5-1-0.6-1.4-0.6z"/>
		<path class="st0" d="m75.2 34.3c-0.2 0-0.4-0.1-0.6-0.2l-3-3c-0.3-0.3-0.3-0.8 0-1.1s0.8-0.3 1.1 0l2.9 2.9c0.3 0.3 0.3 0.8 0 1.1 0.1 0.2-0.2 0.3-0.4 0.3z"/>
		<path class="st0" d="m70.4 32.1c-0.9 0-1.9-0.4-2.5-1-1.4-1.4-1.4-3.6 0-5s3.6-1.4 5 0 1.4 3.6 0 5c-0.8 0.7-1.6 1-2.5 1zm0-5.4c-0.5 0-1 0.2-1.4 0.6-0.7 0.7-0.7 2 0 2.8 0.7 0.7 2 0.7 2.8 0 0.7-0.7 0.7-2 0-2.8-0.4-0.4-1-0.6-1.4-0.6z"/>
		<path class="st0" d="m101.2 60.3c-0.2 0-0.4-0.1-0.6-0.2l-2.9-2.9c-0.3-0.3-0.3-0.8 0-1.1s0.7-0.4 1.1 0l3 3c0.3 0.3 0.3 0.8 0 1.1-0.1 0-0.4 0.1-0.6 0.1z"/>
		<path class="st0" d="m103.2 65c-0.9 0-1.9-0.4-2.5-1-1.4-1.4-1.4-3.6 0-5s3.6-1.4 5 0 1.4 3.6 0 5c-0.7 0.6-1.6 1-2.5 1zm0-5.5c-0.5 0-1 0.2-1.4 0.6-0.7 0.7-0.7 2 0 2.8 0.7 0.7 2 0.7 2.8 0s0.7-2 0-2.8c-0.4-0.5-0.9-0.6-1.4-0.6z"/>
		<path class="st0" d="m108 45.8h-4.9c-0.5 0-0.8-0.4-0.8-0.8 0-0.5 0.4-0.8 0.7-0.8h4.9c0.5 0 0.7 0.4 0.7 0.8 0 0.5-0.2 0.8-0.6 0.8z"/>
		<path class="st0" d="m111.9 49.7c-2.6 0-4.7-2.1-4.7-4.7s2.1-4.7 4.7-4.7 4.7 2.1 4.7 4.7-2.1 4.7-4.7 4.7zm0-7.7c-1.8 0-3.1 1.4-3.1 3.1 0 1.8 1.4 3.1 3.1 3.1 1.8 0 3.1-1.4 3.1-3.1 0-1.8-1.4-3.1-3.1-3.1z"/>
		<path class="st0" d="m70.5 45.8h-4.9c-0.5 0-0.8-0.4-0.8-0.8 0-0.5 0.4-0.8 0.8-0.8h4.9c0.5 0 0.8 0.4 0.8 0.8 0 0.5-0.5 0.8-0.8 0.8z"/>
		<path class="st0" d="m61.7 49.7c-2.6 0-4.7-2.1-4.7-4.7s2.1-4.7 4.7-4.7 4.7 2.1 4.7 4.7-2.1 4.7-4.7 4.7zm0-7.7c-1.8 0-3.1 1.4-3.1 3.1 0 1.8 1.4 3.1 3.1 3.1 1.8 0 3.1-1.4 3.1-3.1 0-1.8-1.5-3.1-3.1-3.1z"/>
		<path class="st0" d="m86.8 29.5c-0.5 0-0.8-0.4-0.8-0.7v-4.9c0-0.5 0.4-0.8 0.8-0.8 0.5 0 0.8 0.4 0.8 0.8v4.8c0 0.4-0.4 0.8-0.8 0.8z"/>
		<path class="st0" d="m86.8 24.5c-2.6 0-4.7-2.1-4.7-4.7s2.1-4.7 4.7-4.7 4.7 2.1 4.7 4.7-2.1 4.7-4.7 4.7zm0-7.7c-1.8 0-3.1 1.4-3.1 3.1 0 1.8 1.4 3.1 3.1 3.1 1.8 0 3.1-1.4 3.1-3.1s-1.4-3.1-3.1-3.1z"/>
		<path class="st0" d="m86.8 67.1c-0.5 0-0.8-0.4-0.8-0.8v-5c0-0.5 0.4-0.8 0.8-0.8 0.5 0 0.8 0.4 0.8 0.8v5c0 0.5-0.4 0.8-0.8 0.8z"/>
		<path class="st0" d="m86.8 74.9c-2.6 0-4.7-2.1-4.7-4.7s2.1-4.7 4.7-4.7 4.7 2.1 4.7 4.7-2.1 4.7-4.7 4.7zm0-7.8c-1.8 0-3.1 1.4-3.1 3.1 0 1.8 1.4 3.1 3.1 3.1 1.8 0 3.1-1.4 3.1-3.1s-1.4-3.1-3.1-3.1z"/>
	
	
		
			<path class="st0" d="m140 107.5h-39.1c-1.9 0-3.5-1.6-3.5-3.5v-25.9c0-1.9 1.6-3.6 3.5-3.6h39.1c1.9 0 3.5 1.6 3.5 3.6v25.8c0.1 2-1.5 3.6-3.5 3.6zm-39.1-31.4c-1.1 0-2 0.9-2 1.9v25.8c0 1.1 0.9 2 2 2h39.1c1.1 0 2-0.9 2-2v-25.7c0-1.1-0.9-1.9-2-1.9h-39.1z"/>
			<path class="st0" d="m142.8 101.9h-44.6c-0.5 0-0.7-0.4-0.7-0.7 0-0.4 0.4-0.7 0.7-0.7h44.6c0.5 0 0.7 0.4 0.7 0.7 0 0.4-0.3 0.7-0.7 0.7z"/>
			<path class="st0" d="m123.1 79.9h-4.7c-0.5 0-0.7-0.4-0.7-0.8s0.4-0.8 0.7-0.8h4.7c0.5 0 0.7 0.4 0.7 0.8s-0.3 0.8-0.7 0.8z"/>
			<path class="st0" d="m130.8 116.2h-20.6c-1.3 0-2.4-1.1-2.4-2.4s1.1-2.4 2.4-2.4h7.4v-4.7c0-0.5 0.4-0.7 0.7-0.7h4.7c0.5 0 0.7 0.4 0.7 0.7v4.7h6.9c1.3 0 2.4 1.1 2.4 2.4 0.2 1.3-0.9 2.4-2.2 2.4zm-20.6-3.2c-0.5 0-0.8 0.4-0.8 0.8s0.4 0.8 0.8 0.8h20.6c0.5 0 0.8-0.4 0.8-0.8s-0.4-0.8-0.8-0.8h-7.7c-0.5 0-0.7-0.4-0.7-0.7v-4.7h-3.1v4.7c0 0.5-0.4 0.7-0.7 0.7h-8.4z"/>
		
		<path class="st0" d="m110.2 91.9c-1.7 0-3.1-1.3-3.1-3 0-1.6 1.4-3 3.1-3s3.1 1.3 3.1 3-1.3 3-3.1 3zm0-4.2c-0.8 0-1.5 0.6-1.5 1.4 0 0.7 0.6 1.4 1.5 1.4s1.5-0.6 1.5-1.4-0.7-1.4-1.5-1.4z"/>
		<path class="st0" d="m121 97.4c-1.7 0-3.1-1.3-3.1-3s1.4-3 3.1-3 3.1 1.3 3.1 3-1.3 3-3.1 3zm0-4.2c-0.8 0-1.5 0.6-1.5 1.4 0 0.7 0.6 1.4 1.5 1.4s1.5-0.6 1.5-1.4-0.6-1.4-1.5-1.4z"/>
		<path class="st0" d="m132.7 86.8c-1.7 0-3.1-1.3-3.1-3s1.4-3 3.1-3 3.1 1.3 3.1 3-1.3 3-3.1 3zm0-4.4c-0.8 0-1.5 0.6-1.5 1.4s0.6 1.4 1.5 1.4 1.5-0.6 1.5-1.4-0.7-1.4-1.5-1.4z"/>
		<path class="st0" d="m119.2 94.1c-0.1 0-0.2 0-0.3-0.1l-7-3.1c-0.4-0.2-0.6-0.6-0.4-1s0.6-0.6 1-0.4l7 3.1c0.4 0.2 0.6 0.6 0.4 1-0.2 0.3-0.4 0.5-0.7 0.5z"/>
		<path class="st0" d="m122.4 93.6c-0.2 0-0.5-0.1-0.6-0.3-0.3-0.4-0.3-0.8 0.1-1.1l8.8-7.4c0.4-0.3 0.8-0.3 1.1 0.1s0.3 0.8-0.1 1.1l-8.8 7.4c-0.1 0.1-0.3 0.2-0.5 0.2z"/>
	
	
		
			
				<path class="st0" d="m56.9 118.2h-20.4c-1.5 0-2.6-1.2-2.6-2.6v-44.8c0-1.5 1.2-2.6 2.6-2.6h20.4c1.5 0 2.6 1.2 2.6 2.6v6.9c0 0.5-0.4 0.8-0.8 0.8s-0.8-0.4-0.8-0.8v-6.9c0-0.6-0.5-1-1-1h-20.5c-0.6 0-1 0.5-1 1v44.8c0 0.6 0.5 1 1 1h20.4c0.6 0 1-0.5 1-1v-14.3c0-0.5 0.4-0.7 0.8-0.7s0.8 0.4 0.8 0.7v14.3c0.1 1.5-1 2.6-2.5 2.6z"/>
				<path class="st0" d="m46.7 115.2c-1.7 0-3-1.3-3-3s1.3-3 3-3 3 1.3 3 3-1.3 3-3 3zm0-4.4c-0.7 0-1.4 0.6-1.4 1.4s0.6 1.4 1.4 1.4c0.7 0 1.4-0.6 1.4-1.4s-0.6-1.4-1.4-1.4z"/>
				<path class="st0" d="m58.8 76.1h-24.1c-0.5 0-0.8-0.4-0.8-0.8s0.4-0.8 0.8-0.8h24.1c0.5 0 0.8 0.4 0.8 0.8s-0.4 0.8-0.8 0.8z"/>
				<path class="st0" d="m58.8 107.6h-24.1c-0.5 0-0.8-0.4-0.8-0.7s0.4-0.7 0.8-0.7h24.1c0.5 0 0.8 0.4 0.8 0.7s-0.4 0.7-0.8 0.7z"/>
				<path class="st0" d="M47.8,73h-2.3c-0.5,0-0.8-0.4-0.8-0.8s0.4-0.8,0.8-0.8h2.3c0.5,0,0.8,0.4,0.8,0.8S48.3,73,47.8,73z"/>
			
			
				<path class="st0" d="m49.1 102.9c-0.2 0-0.3-0.1-0.5-0.2-0.3-0.2-0.4-0.5-0.3-0.8l1.4-6.2v-12.4c0-1.5 1.2-2.7 2.7-2.7h25.8c1.5 0 2.7 1.2 2.7 2.7v12.5c0 1.5-1.2 2.7-2.7 2.7h-21.8l-6.8 4.3c-0.2 0.1-0.4 0.1-0.5 0.1zm3.4-20.7c-0.6 0-1.1 0.5-1.1 1.1v12.5 0.2l-1 4.4 5.4-3.4c0.1-0.1 0.3-0.1 0.5-0.1h22.2c0.6 0 1.1-0.5 1.1-1.1v-12.5c0-0.6-0.5-1.1-1.1-1.1h-26z"/>
			
		
		
			<path class="st0" d="m58.1 93.9h-2c-1.2 0-2.1-0.9-2.1-2.1 0-0.5 0.4-0.7 0.8-0.7 0.5 0 0.8 0.4 0.8 0.7s0.3 0.6 0.6 0.6h2c0.3 0 0.6-0.3 0.6-0.6v-0.8c0-0.3-0.3-0.6-0.6-0.6h-2c-1.2 0-2.1-0.9-2.1-2.1v-0.8c0-1.2 0.9-2.1 2.1-2.1h2c1.2 0 2.1 0.9 2.1 2.1 0 0.5-0.4 0.7-0.8 0.7-0.5 0-0.8-0.4-0.8-0.7s-0.3-0.6-0.6-0.6h-2c-0.3 0-0.6 0.3-0.6 0.6v0.8c0 0.3 0.3 0.6 0.6 0.6h2c1.2 0 2.1 0.9 2.1 2.1v0.8c0 1.2-0.9 2.1-2.1 2.1z"/>
			<path class="st0" d="m57.1 86.9c-0.5 0-0.8-0.4-0.8-0.8v-1.4c0-0.5 0.4-0.8 0.8-0.8 0.5 0 0.8 0.4 0.8 0.8v1.3c0 0.5-0.3 0.9-0.8 0.9z"/>
			<path class="st0" d="m57.1 95.3c-0.5 0-0.8-0.4-0.8-0.7v-1.4c0-0.5 0.4-0.7 0.8-0.7 0.5 0 0.8 0.4 0.8 0.7v1.4c0 0.3-0.3 0.7-0.8 0.7z"/>
		
		
			<path class="st0" d="m66.8 93.9h-2c-1.2 0-2.1-0.9-2.1-2.1 0-0.5 0.4-0.7 0.8-0.7s0.8 0.4 0.8 0.7 0.3 0.6 0.6 0.6h2c0.3 0 0.6-0.3 0.6-0.6v-0.8c0-0.3-0.3-0.6-0.6-0.6h-2c-1.2 0-2.1-0.9-2.1-2.1v-0.8c0-1.2 0.9-2.1 2.1-2.1h2c1.2 0 2.1 0.9 2.1 2.1 0 0.5-0.4 0.7-0.8 0.7s-0.8-0.4-0.8-0.7-0.3-0.6-0.6-0.6h-2c-0.3 0-0.6 0.3-0.6 0.6v0.8c0 0.3 0.3 0.6 0.6 0.6h2c1.2 0 2.1 0.9 2.1 2.1v0.8c0 1.2-0.9 2.1-2.1 2.1z"/>
			<path class="st0" d="m65.8 86.9c-0.5 0-0.8-0.4-0.8-0.8v-1.4c0-0.5 0.4-0.8 0.8-0.8s0.8 0.4 0.8 0.8v1.3c0 0.5-0.3 0.9-0.8 0.9z"/>
			<path class="st0" d="m65.8 95.3c-0.5 0-0.8-0.4-0.8-0.7v-1.4c0-0.5 0.4-0.7 0.8-0.7s0.8 0.4 0.8 0.7v1.4c0 0.3-0.3 0.7-0.8 0.7z"/>
		
		
			<path class="st0" d="m75.5 93.9h-2c-1.2 0-2.1-0.9-2.1-2.1 0-0.5 0.4-0.7 0.8-0.7 0.5 0 0.8 0.4 0.8 0.7s0.3 0.6 0.6 0.6h2c0.3 0 0.6-0.3 0.6-0.6v-0.8c0-0.3-0.3-0.6-0.6-0.6h-2c-1.2 0-2.1-0.9-2.1-2.1v-0.8c0-1.2 0.9-2.1 2.1-2.1h2c1.2 0 2.1 0.9 2.1 2.1 0 0.5-0.4 0.7-0.8 0.7s-0.8-0.4-0.8-0.7-0.3-0.6-0.6-0.6h-2c-0.3 0-0.6 0.3-0.6 0.6v0.8c0 0.3 0.3 0.6 0.6 0.6h2c1.2 0 2.1 0.9 2.1 2.1v0.8c0.1 1.2-0.9 2.1-2.1 2.1z"/>
			<path class="st0" d="m74.6 86.9c-0.5 0-0.8-0.4-0.8-0.8v-1.4c0-0.5 0.4-0.8 0.8-0.8s0.8 0.4 0.8 0.8v1.3c-0.1 0.5-0.4 0.9-0.8 0.9z"/>
			<path class="st0" d="m74.6 95.3c-0.5 0-0.8-0.4-0.8-0.7v-1.4c0-0.5 0.4-0.7 0.8-0.7s0.8 0.4 0.8 0.7v1.4c-0.1 0.3-0.4 0.7-0.8 0.7z"/>
		
	
	
		<path class="st0" d="m99.6 134.3h-27.5c-2.9 0-5.3-2.3-5.3-5.3 0-2.4 1.6-4.4 3.9-5v-0.4c0-4.4 3.5-7.9 7.9-7.9 0.3 0 0.6 0 0.9 0.1 1.7-3.2 5-5.4 8.7-5.4s7 2 8.6 5.4c3.7 0.5 6.5 3.6 6.5 7.4 0 0.6-0.1 1.3-0.3 1.9 1.2 1 1.9 2.4 1.9 4 0 2.8-2.3 5.2-5.3 5.2zm-21.1-17c-3.5 0-6.3 2.9-6.3 6.3 0 0.3 0 0.6 0.1 0.9 0 0.2 0 0.5-0.2 0.6-0.1 0.2-0.3 0.3-0.6 0.3-1.9 0.2-3.2 1.8-3.2 3.6 0 2 1.7 3.7 3.7 3.7h27.6c2 0 3.7-1.7 3.7-3.7 0-1.2-0.6-2.3-1.7-3.1-0.3-0.2-0.5-0.6-0.3-0.9 0.2-0.6 0.4-1.3 0.4-1.9 0-3.1-2.4-5.6-5.5-5.8-0.3 0-0.6-0.2-0.6-0.5-1.3-3-4.2-4.8-7.4-4.8s-6.2 1.9-7.5 4.9c-0.2 0.4-0.6 0.6-0.9 0.5-0.4-0.1-0.8-0.1-1.3-0.1z"/>
		
			<path class="st0" d="m86 139.5c-1.8 0-3.4-0.6-4.6-1.9-0.3-0.3-0.3-0.8 0-1.1s0.8-0.3 1.1 0c0.9 0.9 2.2 1.5 3.5 1.5s2.6-0.6 3.5-1.5c0.3-0.3 0.8-0.3 1.1 0s0.3 0.8 0 1.1c-1.2 1.3-2.8 1.9-4.6 1.9z"/>
			<path class="st0" d="m86 145c-3.2 0-6.2-1.2-8.5-3.5-0.3-0.3-0.3-0.8 0-1.1s0.8-0.3 1.1 0c1.9 1.9 4.5 3.1 7.3 3.1s5.4-1.1 7.4-3.1c0.3-0.3 0.8-0.3 1.1 0s0.3 0.8 0 1.1c-2.2 2.3-5.2 3.5-8.4 3.5z"/>
			<path class="st0" d="m86 150c-4.5 0-8.8-1.8-11.9-5-0.3-0.3-0.3-0.8 0-1.1s0.8-0.3 1.1 0c2.9 2.9 6.8 4.5 10.8 4.5 4.1 0 8-1.6 10.8-4.5 0.3-0.3 0.8-0.3 1.1 0s0.3 0.8 0 1.1c-3.1 3.2-7.3 5-11.9 5z"/>
		
	

</svg>
