<?xml version="1.0" encoding="UTF-8"?>
<svg enable-background="new 0 0 170 170" version="1.1" viewBox="0 0 170 170" xml:space="preserve" xmlns="http://www.w3.org/2000/svg">
<style type="text/css">
	.st0{fill:#CC0000;}
</style>

	
		<path class="st0" d="m99.3 76.4h-22.8c-0.5 0-0.8-0.4-0.8-0.8v-3.6c0-0.5 0.4-0.8 0.8-0.8h22.8c0.5 0 0.8 0.4 0.8 0.8v3.6c0 0.4-0.3 0.8-0.8 0.8zm-22-1.6h21.2v-2h-21.2v2z"/>
		<path class="st0" d="m97.4 72.7h-19.1c-0.5 0-0.8-0.4-0.8-0.8v-3.6c0-0.5 0.4-0.8 0.8-0.8h6.2v-4.8c-2.9-1.5-8.6-5.9-8.6-16.3 0-2.6 0.4-4.6 1.1-6.1 0.1-0.3 0.4-0.5 0.8-0.5h20c0.3 0 0.6 0.2 0.8 0.5 0.8 1.5 1.1 3.4 1.1 6.1 0 10.5-5.7 14.8-8.6 16.3v4.7h6.5c0.5 0 0.8 0.4 0.8 0.8v3.6c-0.1 0.5-0.5 0.9-1 0.9zm-18.2-1.6h17.5v-2h-6.5c-0.5 0-0.8-0.4-0.8-0.8v-5.9c0-0.3 0.2-0.6 0.5-0.8 2.4-1.1 8.2-4.9 8.2-15 0-2.1-0.3-3.7-0.8-4.9h-19c-0.5 1.2-0.8 2.8-0.8 4.9 0 10 5.7 13.8 8.2 15 0.3 0.1 0.5 0.4 0.5 0.8v6c0 0.5-0.4 0.8-0.8 0.8h-6.2v1.9z"/>
		<path class="st0" d="m79 56.9c-3.8-0.6-6.6-2.1-8.3-4.5-2.6-3.8-1.9-8.3-1.9-8.5 0.1-0.4 0.4-0.7 0.8-0.7h7.2c0.5 0 0.8 0.4 0.8 0.8 0 0.5-0.4 0.8-0.8 0.8h-6.5c-0.1 1.3-0.1 4.1 1.7 6.6 1.5 2.1 3.9 3.3 7.1 3.9 0.5 0.1 0.8 0.5 0.7 0.9s-0.4 0.7-0.8 0.7z"/>
		<path class="st0" d="m96.9 56.9c-0.4 0-0.8-0.3-0.8-0.7-0.1-0.5 0.3-0.8 0.7-0.9 3.3-0.5 5.6-1.8 7.1-3.9 1.7-2.4 1.8-5.3 1.7-6.6h-6.5c-0.5 0-0.8-0.4-0.8-0.8 0-0.5 0.4-0.8 0.8-0.8h7.2c0.4 0 0.8 0.3 0.8 0.7 0 0.2 0.8 4.7-1.9 8.5-1.7 2.4-4.5 3.9-8.2 4.5h-0.1z"/>
		<path class="st0" d="m91.1 56.1c-0.2 0-0.3 0-0.5-0.1l-2.9-1.9-2.9 1.9c-0.3 0.2-0.7 0.2-0.9 0-0.3-0.2-0.4-0.6-0.3-0.8l0.9-3.3-2.6-2.2c-0.3-0.2-0.4-0.6-0.3-0.8 0.1-0.3 0.4-0.6 0.8-0.6l3.4-0.2 1.2-3.2c0.1-0.3 0.4-0.5 0.8-0.5s0.7 0.2 0.8 0.5l1.2 3.2 3.4 0.2c0.4 0 0.7 0.3 0.8 0.6s0 0.7-0.3 0.8l-2.6 2.2 0.9 3.3c0.1 0.3 0 0.7-0.3 0.8s-0.4 0.1-0.6 0.1zm-3.3-3.8c0.2 0 0.3 0 0.5 0.1l1.5 1-0.5-1.8c-0.1-0.3 0-0.7 0.3-0.8l1.4-1.1-1.9-0.1c-0.3 0-0.6-0.2-0.8-0.5l-0.6-1.8-0.5 1.7c-0.1 0.3-0.4 0.5-0.8 0.5l-1.9 0.1 1.4 1.1c0.3 0.2 0.4 0.6 0.3 0.8l-0.5 1.8 1.5-1c0.3 0.1 0.4 0 0.6 0z"/>
	
	
		
			<path class="st0" d="m88 21.2c-0.5 0-0.8-0.4-0.8-0.8v-5.2c0-0.5 0.4-0.8 0.8-0.8s0.8 0.4 0.8 0.8v5.2c0.1 0.4-0.3 0.8-0.8 0.8z"/>
			<path class="st0" d="m98.5 25.6c-0.2 0-0.4-0.1-0.6-0.2-0.3-0.3-0.3-0.8 0-1.1l3.7-3.7c0.3-0.3 0.8-0.3 1.1 0s0.3 0.8 0 1.1l-3.7 3.7c0 0.2-0.3 0.2-0.5 0.2z"/>
			<path class="st0" d="m108 36.3h-5.2c-0.5 0-0.8-0.4-0.8-0.8 0-0.5 0.4-0.8 0.8-0.8h5.2c0.5 0 0.8 0.4 0.8 0.8s-0.3 0.8-0.8 0.8z"/>
			<path class="st0" d="m73 36h-5.2c-0.5 0-0.8-0.4-0.8-0.8 0-0.5 0.4-0.8 0.8-0.8h5.2c0.5 0 0.8 0.4 0.8 0.8s-0.4 0.8-0.8 0.8z"/>
			<path class="st0" d="m77.5 25.4c-0.2 0-0.4-0.1-0.6-0.2l-3.7-3.7c-0.3-0.3-0.3-0.8 0-1.1s0.8-0.3 1.1 0l3.7 3.7c0.3 0.3 0.3 0.8 0 1.1-0.1 0.2-0.3 0.2-0.5 0.2z"/>
		
		
			<path class="st0" d="m87.2 34.4v2h-8v-1.6l4-3.9c0.5-0.4 0.8-0.8 0.8-1 0.2-0.3 0.2-0.6 0.2-0.8 0-0.5-0.2-0.8-0.5-0.9-0.3-0.2-0.8-0.4-1.2-0.4s-0.8 0.1-1.2 0.3-0.7 0.5-0.9 0.8l-1.8-1.1c0.4-0.7 0.9-1.1 1.7-1.4s1.6-0.6 2.5-0.6c0.8 0 1.5 0.1 2.1 0.4s1 0.7 1.4 1.1c0.4 0.5 0.5 1 0.5 1.7 0 0.6-0.1 1.1-0.4 1.6s-0.8 1-1.4 1.7l-2.4 2.3c0-0.2 4.6-0.2 4.6-0.2z"/>
			<path class="st0" d="m90.3 35.9c-0.7-0.5-1.2-1-1.6-1.9-0.4-0.8-0.6-1.8-0.6-2.9s0.2-2.2 0.6-2.9c0.4-0.8 0.9-1.4 1.6-1.9s1.5-0.7 2.3-0.7 1.7 0.2 2.3 0.7c0.7 0.5 1.2 1 1.6 1.9 0.4 0.8 0.6 1.8 0.6 2.9s-0.2 2.2-0.6 2.9c-0.4 0.8-0.9 1.4-1.6 1.9s-1.5 0.7-2.3 0.7-1.6-0.3-2.3-0.7zm3.9-2.3c0.4-0.6 0.6-1.4 0.6-2.5s-0.2-2-0.6-2.5c-0.4-0.6-0.8-0.8-1.5-0.8s-1.1 0.3-1.5 0.8c-0.4 0.6-0.6 1.4-0.6 2.5s0.2 2 0.6 2.5c0.4 0.6 0.8 0.8 1.5 0.8 0.6 0.1 1.1-0.2 1.5-0.8z"/>
		
	
	<path class="st0" d="m72.6 113.8h-47.4c-0.3 0-0.7-0.2-0.8-0.5s-0.1-0.7 0.2-0.8l17.1-17.4c0.3-0.3 0.8-0.3 1.1 0l7.6 7.5 21.6-21.4c0.2-0.2 0.6-0.3 0.8-0.2 0.3 0.1 0.5 0.4 0.5 0.8l-0.1 31.2c0.2 0.4-0.2 0.8-0.6 0.8zm-45.5-1.6h44.6v-28.5l-20.7 20.5c-0.3 0.3-0.8 0.3-1.1 0l-7.6-7.5-15.2 15.5z"/>
	<path class="st0" d="m34.7 113.8c-0.5 0-0.8-0.4-0.8-0.8v-9.5c0-0.5 0.4-0.8 0.8-0.8 0.5 0 0.8 0.4 0.8 0.8v9.5c0 0.4-0.3 0.8-0.8 0.8z"/>
	<path class="st0" d="m44.2 113.8c-0.5 0-0.8-0.4-0.8-0.8v-15.6c0-0.5 0.4-0.8 0.8-0.8 0.5 0 0.8 0.4 0.8 0.8v15.5c0 0.5-0.4 0.9-0.8 0.9z"/>
	<path class="st0" d="m53.6 113.8c-0.5 0-0.8-0.4-0.8-0.8v-12.1c0-0.5 0.4-0.8 0.8-0.8 0.5 0 0.8 0.4 0.8 0.8v12c0.1 0.5-0.3 0.9-0.8 0.9z"/>
	<path class="st0" d="m63.1 113.8c-0.5 0-0.8-0.4-0.8-0.8v-21.6c0-0.5 0.4-0.8 0.8-0.8 0.5 0 0.8 0.4 0.8 0.8v21.5c0.1 0.5-0.3 0.9-0.8 0.9z"/>
	
		
			<path class="st0" d="m33.9 92.5c-0.2 0-0.4-0.1-0.6-0.2-0.3-0.3-0.3-0.8 0-1.1l16.3-16.2c0.3-0.3 0.8-0.3 1.1 0s0.3 0.8 0 1.1l-16.2 16.1c-0.2 0.2-0.4 0.3-0.6 0.3z"/>
			
				<polygon class="st0" points="52.3 79.4 54.6 71 46.1 73.3"/>
			
		
	
	<path class="st0" d="m88 152c-6.7 0-12.1-5.4-12.1-12.1v-13.1c0-6.7 5.4-12.1 12.1-12.1s12.1 5.4 12.1 12.1v13.1c-0.1 6.7-5.5 12.1-12.1 12.1zm0-35.7c-5.8 0-10.5 4.7-10.5 10.5v13.1c0 5.8 4.7 10.5 10.5 10.5s10.5-4.7 10.5-10.5v-13.1c-0.1-5.7-4.8-10.5-10.5-10.5z"/>
	<path class="st0" d="m87 116.3c-0.5 0-0.8-0.4-0.8-0.8v-3.5c0-2 1.6-3.6 3.6-3.6h4.2c1.1 0 2-0.9 2-2v-2.2c0-0.5 0.4-0.8 0.8-0.8s0.8 0.4 0.8 0.8v2.2c0 2-1.6 3.6-3.6 3.6h-4.3c-1.1 0-2 0.9-2 2v3.6c0 0.4-0.3 0.7-0.7 0.7z"/>
	<path class="st0" d="m88 129.8c-1.7 0-3-1.3-3-3v-3.7c0-1.7 1.3-3 3-3s3 1.3 3 3v3.7c0 1.7-1.4 3-3 3zm0-8.1c-0.8 0-1.4 0.7-1.4 1.4v3.7c0 0.8 0.7 1.4 1.4 1.4 0.8 0 1.4-0.7 1.4-1.4v-3.7c0-0.7-0.7-1.4-1.4-1.4z"/>
	
		<path class="st0" d="m109 108.5c-0.1 0-0.2 0-0.3-0.1-0.3-0.1-0.5-0.4-0.5-0.8v-7.9c-3.9-2.9-6.2-7-6.2-11.2 0-8.6 8.8-15.4 19.7-15.4s19.7 7 19.7 15.4c0 8.6-8.8 15.4-19.7 15.4-2.4 0-4.7-0.4-7-1l-5.2 5.2c0 0.3-0.3 0.4-0.5 0.4zm0.9-9.1v6.3l4.2-4.2c0.2-0.2 0.6-0.3 0.8-0.2 2.3 0.7 4.5 1 7 1 10 0 18.1-6.2 18.1-13.8s-8.1-13.8-18.1-13.8-18.1 6.2-18.1 13.8c0 3.9 2.2 7.5 5.8 10.1 0.2 0.3 0.3 0.6 0.3 0.8z"/>
		
			<path class="st0" d="m121.8 98c-0.2 0-0.4-0.1-0.5-0.2-0.3-0.3-7.9-6.4-9-10.1-0.7-1.7-0.5-3.9 0.5-5.4 0.8-1.3 2.1-2.2 3.6-2.3 2.7-0.3 4.5 1.1 5.4 2.2 0.9-1 2.8-2.4 5.4-2.2 1.6 0.2 2.8 1 3.6 2.3 0.9 1.6 1.1 3.8 0.5 5.4-1.1 3.7-8.7 9.8-9 10.1-0.1 0.2-0.3 0.2-0.5 0.2zm-4.7-16.4h-0.6c-1 0.1-1.9 0.7-2.4 1.6-0.7 1.1-0.8 2.8-0.4 4.1 0.8 2.5 5.6 7 8.1 8.9 2.3-2 7.2-6.4 8-8.8 0.5-1.3 0.4-3-0.3-4.1-0.6-0.9-1.4-1.4-2.4-1.6-2.8-0.4-4.5 2.2-4.6 2.3-0.2 0.2-0.4 0.4-0.7 0.4s-0.6-0.1-0.7-0.4c-0.1-0.2-1.5-2.4-4-2.4z"/>
		
	
	
		<path class="st0" d="m139.5 114.5c-0.2 0-0.4-0.1-0.6-0.2l-4.1-4.2c-1.8 0.6-3.7 0.8-5.6 0.8-5.4 0-10.3-2.1-13.3-5.5-0.3-0.4-0.3-0.8 0.1-1.1s0.8-0.3 1.1 0.1c2.7 3.1 7.2 5 12.1 5 2 0 3.9-0.3 5.6-0.8 0.3-0.1 0.6 0 0.8 0.2l3.2 3.2v-5c0-0.3 0.1-0.5 0.4-0.7 3-2.1 4.7-5.1 4.7-8.2 0-2.1-0.8-4-2.2-5.8-0.3-0.4-0.2-0.8 0.1-1.1 0.4-0.3 0.8-0.2 1.1 0.1 1.7 2.1 2.5 4.4 2.5 6.9 0 3.5-1.8 6.9-5 9.2v6.3c0 0.3-0.2 0.7-0.5 0.8h-0.4z"/>
	

</svg>
