<?xml version="1.0" encoding="UTF-8"?>
<svg enable-background="new 0 0 170 170" version="1.1" viewBox="0 0 170 170" xml:space="preserve" xmlns="http://www.w3.org/2000/svg">
<style type="text/css">
	.st0{fill:#CC0000;}
</style>

	
		
			<path class="st0" d="m111.2 105.1c-6.3 0-12.1-3.4-15.1-9.1-0.2-0.4-0.1-0.8 0.4-1 0.4-0.2 0.8-0.1 1 0.4 2.7 5.1 7.9 8.3 13.7 8.3 8.6 0 15.6-7 15.6-15.6s-7-15.6-15.6-15.6-15.6 7-15.6 15.6c0 0.7 0 1.3 0.1 1.9 0.1 0.5-0.3 0.8-0.7 0.8-0.5 0.1-0.8-0.3-0.8-0.7-0.1-0.7-0.1-1.4-0.1-2 0-9.4 7.6-17.1 17.1-17.1s17.1 7.6 17.1 17.1c-0.1 9.3-7.7 17-17.1 17z"/>
			<path class="st0" d="m139.3 116.9c-0.2 0-0.4-0.1-0.6-0.2l-16.6-16.6c-0.3-0.3-0.3-0.8 0-1.1s0.8-0.3 1.1 0l16.6 16.6c0.3 0.3 0.3 0.8 0 1.1-0.1 0.1-0.3 0.2-0.5 0.2z"/>
		
		<path class="st0" d="m105.9 99.9c-0.4 0-0.7-0.3-0.7-0.6l-3.6-14.9-2.3 5.9c-0.1 0.3-0.4 0.5-0.7 0.5h-10.7c-0.5 0-0.8-0.4-0.8-0.8 0-0.5 0.4-0.8 0.8-0.8h10.1l3.1-7.6c0.1-0.3 0.5-0.6 0.7-0.5 0.4 0 0.7 0.3 0.7 0.6l3.4 14 4-18.9c0.1-0.4 0.4-0.7 0.8-0.7s0.7 0.3 0.7 0.7l1.5 14.2 2.4-5.9c0.1-0.3 0.4-0.5 0.7-0.5s0.6 0.1 0.7 0.4l2.9 4.5 3.6-6c0.2-0.4 0.7-0.5 1.1-0.3s0.5 0.7 0.3 1.1l-4.3 7.1c-0.2 0.3-0.4 0.4-0.7 0.4s-0.6-0.1-0.7-0.4l-2.7-4.3-3 7.3c-0.1 0.4-0.5 0.6-0.8 0.5-0.4-0.1-0.7-0.4-0.7-0.7l-1.5-12.3-3.7 17.4c0.1 0.4-0.3 0.6-0.6 0.6z"/>
	
	
		<path class="st0" d="m73.3 107.7h-46.6c-0.4 0-0.7-0.2-0.7-0.6-0.1-0.4 0-0.7 0.3-0.9l46.6-33.4c0.3-0.2 0.6-0.2 0.8-0.1s0.5 0.4 0.5 0.7v33.5c-0.1 0.4-0.5 0.8-0.9 0.8zm-44.1-1.6h43.3v-31.1l-43.3 31.1z"/>
		<path class="st0" d="m68.1 101.6h-23.3c-0.4 0-0.7-0.2-0.7-0.6s0-0.7 0.3-0.9l23.3-16.8c0.3-0.2 0.6-0.2 0.8-0.1 0.3 0.1 0.5 0.4 0.5 0.7v16.8c-0.1 0.6-0.5 0.9-0.9 0.9zm-20.9-1.6h20v-14.4l-20 14.4z"/>
		<path class="st0" d="m68.5 107.7c-0.5 0-0.8-0.4-0.8-0.7v-3.7c0-0.5 0.4-0.7 0.8-0.7 0.5 0 0.8 0.4 0.8 0.7v3.6c0.1 0.4-0.3 0.8-0.8 0.8z"/>
		<path class="st0" d="m65.5 107.7c-0.5 0-0.8-0.4-0.8-0.7v-2c0-0.5 0.4-0.7 0.8-0.7 0.5 0 0.8 0.4 0.8 0.7v2c0 0.3-0.4 0.7-0.8 0.7z"/>
		<path class="st0" d="m62.4 107.7c-0.5 0-0.8-0.4-0.8-0.7v-2c0-0.5 0.4-0.7 0.8-0.7 0.5 0 0.8 0.4 0.8 0.7v2c0 0.3-0.4 0.7-0.8 0.7z"/>
		<path class="st0" d="m59.4 107.7c-0.5 0-0.8-0.4-0.8-0.7v-2c0-0.5 0.4-0.7 0.8-0.7s0.8 0.4 0.8 0.7v2c-0.1 0.3-0.4 0.7-0.8 0.7z"/>
		<path class="st0" d="m56.3 107.7c-0.5 0-0.8-0.4-0.8-0.7v-3.7c0-0.5 0.4-0.7 0.8-0.7s0.8 0.4 0.8 0.7v3.6c0 0.4-0.4 0.8-0.8 0.8z"/>
		<path class="st0" d="m53.3 107.7c-0.5 0-0.8-0.4-0.8-0.7v-2c0-0.5 0.4-0.7 0.8-0.7 0.5 0 0.8 0.4 0.8 0.7v2c-0.1 0.3-0.5 0.7-0.8 0.7z"/>
		<path class="st0" d="m50.2 107.7c-0.5 0-0.8-0.4-0.8-0.7v-2c0-0.5 0.4-0.7 0.8-0.7 0.5 0 0.8 0.4 0.8 0.7v2c-0.1 0.3-0.4 0.7-0.8 0.7z"/>
		<path class="st0" d="m47.1 107.7c-0.5 0-0.8-0.4-0.8-0.7v-2c0-0.5 0.4-0.7 0.8-0.7s0.8 0.4 0.8 0.7v2c-0.1 0.3-0.4 0.7-0.8 0.7z"/>
		<path class="st0" d="m44 107.7c-0.5 0-0.8-0.4-0.8-0.7v-3.7c0-0.5 0.4-0.7 0.8-0.7s0.8 0.4 0.8 0.7v3.6c0 0.4-0.3 0.8-0.8 0.8z"/>
		<path class="st0" d="m41 107.7c-0.5 0-0.8-0.4-0.8-0.7v-2c0-0.5 0.4-0.7 0.8-0.7 0.5 0 0.8 0.4 0.8 0.7v2c-0.1 0.3-0.4 0.7-0.8 0.7z"/>
		<path class="st0" d="m37.9 107.7c-0.5 0-0.8-0.4-0.8-0.7v-2c0-0.5 0.4-0.7 0.8-0.7s0.8 0.4 0.8 0.7v2c-0.1 0.3-0.3 0.7-0.8 0.7z"/>
		<path class="st0" d="m34.8 107.7c-0.5 0-0.8-0.4-0.8-0.7v-2c0-0.5 0.4-0.7 0.8-0.7 0.5 0 0.8 0.4 0.8 0.7v2c0.1 0.3-0.3 0.7-0.8 0.7z"/>
	
	
		<path class="st0" d="m85.7 121.6c-3.2 0-5.7-2.6-5.7-5.7s2.6-5.7 5.7-5.7c3.2 0 5.7 2.6 5.7 5.7s-2.6 5.7-5.7 5.7zm0-9.7c-2.2 0-4.1 1.9-4.1 4.1s1.9 4.1 4.1 4.1 4.1-1.9 4.1-4.1-1.9-4.1-4.1-4.1z"/>
		<path class="st0" d="m85.7 148.2c-7.5 0-14.7-2.6-20.4-7.3-0.4-0.3-0.4-0.7-0.1-1.1s0.7-0.4 1.1-0.1c5.5 4.5 12.4 6.9 19.4 6.9s13.5-2.2 19-6.5c0.4-0.3 0.8-0.2 1.1 0.1 0.3 0.4 0.2 0.8-0.1 1.1-5.8 4.5-12.7 6.9-20 6.9z"/>
		<path class="st0" d="m87.6 112.2c-0.5 0-0.8-0.4-0.8-0.7v-6.4h-2.3v6.4c0 0.5-0.4 0.7-0.8 0.7-0.5 0-0.8-0.4-0.8-0.7v-7.3c0-0.5 0.4-0.7 0.8-0.7h3.9c0.5 0 0.8 0.4 0.8 0.7v7.3c0 0.4-0.3 0.7-0.8 0.7z"/>
		<path class="st0" d="m61.8 140.5c-0.2 0-0.4-0.1-0.6-0.2-0.3-0.3-0.3-0.8 0-1.1l20.3-20.3c0.3-0.3 0.8-0.3 1.1 0s0.3 0.8 0 1.1l-20.3 20.2c0 0.3-0.2 0.3-0.5 0.3z"/>
		<path class="st0" d="m109.5 140.5c-0.2 0-0.4-0.1-0.6-0.2l-20.4-20.3c-0.2-0.2-0.2-0.4-0.2-0.6 0-0.5 0.4-0.8 0.8-0.8 0.3 0 0.5 0.1 0.7 0.3l20.3 20.3c0.3 0.3 0.3 0.8 0 1.1-0.2 0.2-0.4 0.2-0.6 0.2z"/>
	
	
		
			<path class="st0" d="m90.8 66.4h-9.1c-1.3 0-2.3-1-2.3-2.3s1-2.3 2.3-2.3h9.1c1.3 0 2.3 1 2.3 2.3s-1 2.3-2.3 2.3zm-9.2-3.1c-0.5 0-0.7 0.4-0.7 0.7s0.4 0.7 0.7 0.7h9.1c0.5 0 0.7-0.4 0.7-0.7s-0.4-0.7-0.7-0.7h-9.1z"/>
			<path class="st0" d="m90.8 69.5h-9.1c-1.3 0-2.3-1-2.3-2.3s1-2.3 2.3-2.3h9.1c1.3 0 2.3 1 2.3 2.3s-1 2.3-2.3 2.3zm-9.2-3.1c-0.5 0-0.7 0.4-0.7 0.7s0.4 0.7 0.7 0.7h9.1c0.5 0 0.7-0.4 0.7-0.7s-0.4-0.7-0.7-0.7h-9.1z"/>
			<path class="st0" d="m86.2 72.5c-3.4 0-4.9-2.2-5.3-3.4-0.1-0.4 0.1-0.8 0.6-1 0.4-0.1 0.8 0.1 1 0.6 0 0.1 0.8 2.3 3.8 2.3s3.8-2.2 3.8-2.4c0.1-0.4 0.6-0.7 1-0.5 0.4 0.1 0.7 0.6 0.6 1-0.6 1-2.2 3.4-5.5 3.4z"/>
			<path class="st0" d="m81.6 63.3c-1.4-0.2-3.7-1.4-3.7-4.5v-5.3c0-0.5 0.4-0.8 0.8-0.8s0.8 0.4 0.8 0.8v5.3c0 2.5 2 2.9 2.3 3 0.5 0.1 0.7 0.5 0.7 0.9-0.1 0.3-0.5 0.6-0.9 0.6z"/>
			<path class="st0" d="m90.8 63.3c-0.4 0-0.7-0.3-0.7-0.7-0.1-0.5 0.3-0.8 0.7-0.9 0.3 0 2.3-0.5 2.3-3v-5.3c0-0.5 0.4-0.8 0.7-0.8 0.4 0 0.7 0.4 0.7 0.8v5.3c0 3.2-2.4 4.4-3.7 4.6 0.1 0 0 0 0 0z"/>
			<path class="st0" d="m93.6 54.2c-0.3 0-0.6-0.1-0.7-0.4-0.3-0.4-0.1-0.8 0.3-1.1 3.7-2.4 6-6.5 6-11 0-7.2-5.9-13-13-13-7.2 0-13 5.9-13 13 0 4.5 2.2 8.6 6 11 0.4 0.3 0.5 0.7 0.3 1.1-0.3 0.4-0.7 0.5-1.1 0.3-4.2-2.7-6.7-7.4-6.7-12.3 0-8.1 6.6-14.6 14.6-14.6s14.6 6.6 14.6 14.6c0 5-2.5 9.6-6.7 12.3-0.2 0-0.4 0.1-0.6 0.1z"/>
			<path class="st0" d="m84.1 63.3c-0.4 0-0.7-0.3-0.7-0.7l-3.7-20.8c-0.1-0.5 0.2-0.8 0.7-0.9s0.8 0.2 0.9 0.7l3.7 20.8c0.1 0.5-0.2 0.8-0.7 0.9h-0.2z"/>
			<path class="st0" d="m88.2 63.3h-0.2c-0.5-0.1-0.7-0.5-0.7-0.9l3.7-20.8c0.1-0.5 0.5-0.7 0.9-0.7 0.5 0.1 0.7 0.5 0.7 0.9l-3.6 20.8c0 0.4-0.4 0.7-0.8 0.7z"/>
			<path class="st0" d="m90 44.9c-0.3 0-0.5-0.1-0.7-0.3l-1.2-1.6-1.3 1.5c-0.2 0.2-0.4 0.3-0.7 0.3s-0.5-0.1-0.7-0.3l-1.3-1.5-1.2 1.6c-0.3 0.4-0.9 0.4-1.2 0l-2-2.4c-0.3-0.4-0.2-0.8 0.1-1.1 0.4-0.3 0.8-0.2 1.1 0.1l1.3 1.6 1.3-1.6c0.3-0.4 0.9-0.4 1.2 0l1.3 1.6 1.3-1.6c0.3-0.4 0.9-0.4 1.2 0l1.3 1.6 1.3-1.6c0.3-0.4 0.7-0.4 1.1-0.1s0.4 0.7 0.1 1.1l-1.8 2.4c0 0.1-0.2 0.3-0.5 0.3z"/>
		
		<path class="st0" d="m86.4 25.4c-0.5 0-0.8-0.4-0.8-0.8v-6c0-0.5 0.4-0.8 0.8-0.8 0.5 0 0.8 0.4 0.8 0.8v6c0 0.5-0.4 0.8-0.8 0.8z"/>
		<path class="st0" d="m98.4 30.5c-0.2 0-0.4-0.1-0.6-0.2-0.3-0.3-0.3-0.8 0-1.1l4.2-4.2c0.3-0.3 0.8-0.3 1.1 0s0.3 0.8 0 1.1l-4.1 4.2c-0.1 0.2-0.3 0.2-0.6 0.2z"/>
		<path class="st0" d="m109.3 42.6h-6c-0.5 0-0.7-0.4-0.7-0.8s0.4-0.8 0.7-0.8h6c0.5 0 0.7 0.4 0.7 0.8s-0.3 0.8-0.7 0.8z"/>
		<path class="st0" d="m102.4 58.8c-0.2 0-0.4-0.1-0.6-0.2l-4.2-4.2c-0.3-0.3-0.3-0.8 0-1.1s0.8-0.3 1.1 0l4.2 4.2c0.3 0.3 0.3 0.8 0 1.1 0 0.2-0.3 0.2-0.5 0.2z"/>
		<path class="st0" d="m69.9 58.6c-0.2 0-0.4-0.1-0.6-0.2-0.3-0.3-0.3-0.8 0-1.1l4.2-4.2c0.3-0.3 0.8-0.3 1.1 0s0.3 0.8 0 1.1l-4.2 4.2c-0.1 0.1-0.3 0.2-0.5 0.2z"/>
		<path class="st0" d="m69.2 42.3h-6c-0.5 0-0.8-0.4-0.8-0.8 0-0.5 0.4-0.8 0.8-0.8h6c0.5 0 0.8 0.4 0.8 0.8 0.1 0.4-0.4 0.8-0.8 0.8z"/>
		<path class="st0" d="m74.3 30.3c-0.2 0-0.4-0.1-0.6-0.2l-4.2-4.2c-0.3-0.3-0.3-0.8 0-1.1s0.8-0.3 1.1 0l4.2 4.2c0.3 0.3 0.3 0.8 0 1.1-0.1 0.1-0.2 0.2-0.5 0.2z"/>
	

</svg>
