<?xml version="1.0" encoding="utf-8"?>
<!-- Generator: Adobe Illustrator 26.0.1, SVG Export Plug-In . SVG Version: 6.00 Build 0)  -->
<svg version="1.1" id="Layer_1" xmlns="http://www.w3.org/2000/svg" xmlns:xlink="http://www.w3.org/1999/xlink" x="0px" y="0px"
	 viewBox="0 0 291.5 109.7" style="enable-background:new 0 0 291.5 109.7;" xml:space="preserve">
<style type="text/css">
	.st0{fill:#CC0000;}
	.st1{fill:#111111;}
</style>
<path class="st0" d="M18.3,73.6c0,0.9-0.7,1.8-2.1,2.5c0.2,0.2,0.7,0.6,1.5,1.2v0.3c0,1.1-0.4,2.9-1.1,5.2c-0.7,2.3-1.1,4.2-1.1,5.4
	c0,0.3,0,0.7,0.1,1.1c-0.9,0.2-1.9,0.8-3.2,1.6c-1.4,0.9-2.5,1.5-3.1,1.7v0.3H8.7l0.6-0.3v-3.9c0.3,0,0.6-0.2,0.7-0.5l0.1-0.8
	L10,86.8c-0.1-0.2-0.4-0.4-0.7-0.5l0.1-41.4l5.2-0.6c1-0.1,1.9,0.2,2.6,1c0.8,0.8,1.1,1.7,1.1,2.5C18.4,47.8,18.3,73.6,18.3,73.6z
	 M18.3,100.2c0,1.9-0.2,3-0.7,3.5c-0.8,0.1-2,0.3-3.5,0.6c-0.8,0.6-2.1,1.4-4.2,2.5l0.7,0.5H9.3V94.7c0-0.9,1.5-1.3,4.5-1.3
	C16.8,93.4,18.3,95.7,18.3,100.2z M10.5,100.2c0-0.3-0.2-0.5-0.6-0.7c-0.3,0.2-0.5,0.4-0.5,0.7c0,0.2,0.2,0.4,0.5,0.5
	C10.4,100.6,10.5,100.4,10.5,100.2z M10.7,83.3H10v0.6L10.7,83.3z M12.8,100.2h-0.4c-0.8,0-1.6,0.4-2.4,1.2h0.4
	C11.2,101.4,12,101,12.8,100.2z M11.2,91.1c0-0.2-0.1-0.5-0.4-0.6c-0.3,0.2-0.5,0.4-0.5,0.6c0,0.3,0.2,0.4,0.5,0.5
	C11,91.5,11.2,91.3,11.2,91.1z M11.2,94.7c0-0.2-0.1-0.5-0.4-0.6c-0.3,0.2-0.5,0.4-0.5,0.6c0,0.3,0.2,0.5,0.5,0.6
	C11,95.2,11.1,95,11.2,94.7z M13.4,106.8l-0.8,0.2l-0.6-0.2l0.1-0.2l0.5-0.2l0.7,0.2C13.3,106.6,13.4,106.8,13.4,106.8z M14,88.7
	c0-0.2-0.2-0.5-0.5-0.6c-0.3,0.2-0.5,0.4-0.5,0.6s0.2,0.5,0.5,0.6C13.8,89.2,13.9,89,14,88.7z M14.8,103.2l-0.6-1.2v1.2H14.8z
	 M14.8,106.1l-0.6-0.6h0.6V106.1z M16.2,79.7c-0.1-0.1-0.2-0.1-0.3-0.1c-0.2,0-0.4,0.2-0.4,0.5l0.1,0.1l0.5-0.1
	C16.2,80.2,16.2,79.7,16.2,79.7z M17.4,105.5c0,0.2-0.1,0.4-0.4,0.6c-0.4-0.1-0.6-0.3-0.6-0.6c0-0.2,0.2-0.4,0.6-0.5
	C17.2,105.1,17.4,105.3,17.4,105.5z M20.2,73.7c0,0.3-0.1,0.5-0.4,0.7c-0.3-0.2-0.5-0.4-0.5-0.7c0-0.2,0.2-0.5,0.5-0.6
	C20,73.2,20.2,73.4,20.2,73.7z M20.1,88.2c0,0.2-0.1,0.4-0.4,0.6c-0.3-0.1-0.5-0.3-0.5-0.6c0-0.3,0.2-0.5,0.5-0.7
	C20,87.7,20.1,87.9,20.1,88.2z M41.8,89.4L41,89.9c-0.3,0.7-0.5,1.3-0.6,1.8c0.5,0.5,0.7,1.2,0.7,2.2c0,0.3-0.2,1.3-0.7,2.7
	c0.2,0.3,0.3,0.4,0.6,0.6c-0.4,0.2-1.4,1.6-2.8,4.1c-1.2,2.1-2.7,3.2-4.3,3.2c-0.6,0-1.5-0.2-2.6-0.6s-2-0.6-2.6-0.6
	c-0.5,0-1.2,0.2-2.2,0.6s-1.7,0.6-2.2,0.6c-0.1,0-0.5,0-1-0.1l2.7-3.6h1.4c-0.1-0.2-0.3-0.4-0.5-0.5l-0.8-0.1l-0.7,0.1
	c-1.5,2.7-2.9,4.1-4.1,4.1v-0.5h-1.4V99h3.4l-1.4,1.8c0.9,0,2.5-0.8,4.8-2.4s3.7-2.8,4.1-3.6l0.1-35.7c0-2.1-1.3-3.7-3.8-4.9
	c-2-0.9-4.4-1.4-7.1-1.4V46c0-1.2,1.3-1.9,3.9-1.8c8,0,13,2.3,15,6.8c0.5,1,1.2,2.2,2.2,3.6c0,1.7-0.1,2.6-0.1,2.7
	c0,1.3,0.3,2.4,0.9,3.3v0.6c0,0.8-0.1,2-0.4,3.5c-0.3,1.5-0.4,2.7-0.4,3.5V71c0.4,0.1,0.7,0.3,0.8,0.5v0.2c0,0.5-0.1,1.3-0.4,2.3
	c-0.3,1-0.4,1.8-0.4,2.3c0,0.1,0.3,0.6,0.8,1.5V78c0,0.3-0.1,0.8-0.4,1.4C41.1,80.1,41,80.6,41,81l0.8,0.6v0.2
	c0,0.2-0.1,0.5-0.4,0.9c-0.3,0.4-0.4,0.7-0.4,0.9c0,0.3,0.1,0.8,0.4,1.4c0.3,0.6,0.4,1.1,0.4,1.4L41,87.6v0.6l0.8,0.6V89.4
	L41.8,89.4L41.8,89.4z M21.1,59.2h-0.8v-0.5h0.8V59.2z M21,105.5l-0.3,0.2l-0.4-0.2l0.4-0.2L21,105.5z M22.2,90.6
	c0,0.3-0.1,0.5-0.4,0.6c-0.4-0.2-0.5-0.4-0.5-0.6c0-0.3,0.2-0.5,0.5-0.7C22.1,90,22.2,90.3,22.2,90.6z M23,45c0-0.3-0.2-0.6-0.5-0.7
	c-0.3,0.1-0.4,0.4-0.4,0.7c0,0.2,0.1,0.4,0.4,0.5C22.9,45.4,23,45.2,23,45z M22.9,97.7c0,0.2-0.2,0.5-0.5,0.6
	c-0.3-0.2-0.4-0.4-0.4-0.6s0.1-0.4,0.4-0.6C22.7,97.3,22.9,97.5,22.9,97.7z M24.4,106.3h-0.2c-1,0-1.6-0.3-1.9-0.8h2.1V106.3z
	 M27,105.6c0,0.3-0.2,0.4-0.5,0.6c-0.3-0.1-0.5-0.3-0.5-0.6c0-0.2,0.2-0.4,0.5-0.5C26.9,105.1,27,105.3,27,105.6z M28.4,101.4
	c0-0.3-0.1-0.5-0.4-0.7c-0.3,0.2-0.4,0.4-0.4,0.7c0,0.2,0.1,0.4,0.4,0.6C28.2,101.8,28.4,101.6,28.4,101.4z M30,97.7h-0.7v0.6
	L30,97.7z M31.2,96.6c0-0.2-0.2-0.5-0.5-0.6c-0.3,0.2-0.4,0.4-0.4,0.6c0,0.3,0.1,0.4,0.4,0.6C31,97,31.2,96.8,31.2,96.6z M32.3,91.5
	l-0.2-0.3l-0.3,0.3l0.3,0.2L32.3,91.5z M32.3,102.3l-0.2-0.3l-0.3,0.3l0.3,0.2L32.3,102.3z M33.3,93.6c0-0.3-0.2-0.5-0.6-0.7
	c-0.3,0.1-0.4,0.3-0.4,0.7c0,0.2,0.1,0.4,0.4,0.5C33.1,94.1,33.3,93.9,33.3,93.6z M33.3,105.6c0,0.2-0.2,0.4-0.6,0.6
	c-0.3-0.1-0.4-0.3-0.4-0.6c0-0.3,0.2-0.4,0.4-0.5C33.1,105.1,33.3,105.3,33.3,105.6z M34,91.8c0-0.3-0.2-0.5-0.5-0.6
	c-0.4,0.1-0.6,0.3-0.6,0.6c0,0.3,0.2,0.4,0.6,0.6C33.8,92.3,34,92.1,34,91.8z M40.2,80.3c0-0.3-0.1-0.4-0.4-0.5
	c-0.4,0.1-0.7,0.3-0.7,0.5c0,0.3,0.2,0.5,0.7,0.6C40,80.8,40.2,80.6,40.2,80.3z M40.4,74.4v-0.7h-0.6v0.7
	C39.8,74.4,40.4,74.4,40.4,74.4z M42.8,93.7c0,0.2-0.2,0.4-0.4,0.5c-0.3-0.1-0.4-0.3-0.4-0.5c0-0.3,0.2-0.5,0.4-0.7
	C42.7,93.1,42.8,93.3,42.8,93.7z M43.9,55.7L43.1,56l-0.6-0.3l0.2-0.2c0.1,0,0.3-0.1,0.4-0.1l0.7,0.1C43.7,55.6,43.9,55.7,43.9,55.7
	z M44.2,93.7c0,0.2-0.2,0.4-0.4,0.5c-0.4-0.1-0.6-0.3-0.5-0.5c0-0.3,0.2-0.5,0.6-0.7C44.1,93.1,44.2,93.3,44.2,93.7z M55.6,106.2
	c0,0.4-0.1,0.8-0.3,1.1c-0.4,0.1-0.7,0.1-1,0.1l-0.8-0.1l-0.6-0.4h-5.5l0.2-61.5c1.8-0.2,4.5-0.3,8.2-0.6V58c0,0.2-0.1,0.5-0.3,0.6
	c-0.5,0-1,0.1-1.5,0.2c-0.1,0.3-0.2,0.7-0.2,1c0.5,0.5,0.7,1.2,0.6,1.8l1.4-0.6C55.7,61.1,55.6,106.2,55.6,106.2z M50.2,68.2h-2.1
	V69C48.8,68.9,49.5,68.6,50.2,68.2z M50.8,59.3c0-0.2-0.2-0.5-0.5-0.6c-0.3,0.1-0.4,0.3-0.4,0.6s0.2,0.5,0.4,0.6
	C50.6,59.8,50.7,59.6,50.8,59.3z M51.4,64.8c0-0.2-0.2-0.5-0.5-0.7c-0.4,0.2-0.5,0.4-0.5,0.7c0,0.2,0.2,0.5,0.5,0.6
	C51.3,65.2,51.4,65,51.4,64.8z M53.5,57.5c0-0.4-0.2-0.6-0.7-0.5c0-0.3-0.2-0.6-0.6-0.7c-0.3,0.2-0.4,0.4-0.4,0.7
	c0,0.2,0.1,0.4,0.4,0.5h0.2c0.1,0.1,0.3,0.3,0.6,0.6C53.3,57.9,53.5,57.7,53.5,57.5z M52.8,67.1c0-0.3-0.2-0.5-0.6-0.7
	c-0.3,0.1-0.4,0.3-0.4,0.7c0,0.3,0.1,0.5,0.4,0.6C52.6,67.6,52.8,67.4,52.8,67.1z M52.6,69.8l-0.4-0.3l-0.3,0.3l0.3,0.2L52.6,69.8z
	 M52.8,56.9L52.8,56.9c0,0.3-0.2,0.5-0.4,0.5l0,0C52.4,57.1,52.6,57,52.8,56.9z M57.6,62.9c0,0.3-0.1,0.5-0.4,0.6
	c-0.4-0.2-0.5-0.4-0.5-0.6c0-0.3,0.2-0.5,0.5-0.7C57.5,62.4,57.6,62.7,57.6,62.9z M57.6,67.7c0,0.2-0.2,0.4-0.4,0.5
	c-0.4-0.1-0.5-0.3-0.5-0.5c0-0.3,0.2-0.5,0.5-0.6C57.5,67.2,57.6,67.4,57.6,67.7z M57.6,82.1c0,0.3-0.2,0.5-0.4,0.7
	c-0.4-0.2-0.5-0.4-0.5-0.7c0-0.2,0.2-0.4,0.5-0.6C57.4,81.7,57.6,81.9,57.6,82.1z M57.6,87c0,0.3-0.2,0.5-0.4,0.6
	c-0.4-0.1-0.5-0.3-0.5-0.6c0-0.2,0.2-0.5,0.5-0.6C57.4,86.6,57.6,86.8,57.6,87z M57.6,91.8c0,0.3-0.2,0.5-0.4,0.6
	c-0.4-0.1-0.5-0.3-0.5-0.6c0-0.2,0.2-0.4,0.5-0.5C57.4,91.4,57.6,91.5,57.6,91.8z M75.8,47.8c0,0.9-0.5,2.5-1.4,4.8
	c-1.9,0-4.6,0.1-8.3,0.3c-3.7,0.2-6.4,0.3-8.3,0.3h-0.9c0-3.8,0.3-6.9,0.9-9.2c0.1,0.5,0.5,0.8,1.1,0.8c2.5,0,3.9-0.2,4.4-0.8v0.6
	c0.3,0,0.7-0.1,1.2-0.3s0.9-0.3,1.2-0.3c0.3,0,0.6,0.1,1.2,0.4c0.5,0.2,0.9,0.4,1.2,0.4c0.3,0,0.8-0.1,1.4-0.4
	c0.6-0.2,1.1-0.4,1.4-0.4c0.2,0,0.7,0.1,1.2,0.4c0.6,0.3,1,0.4,1.2,0.4s0.5-0.2,1-0.5s0.9-0.5,1.4-0.5v0.4c0-0.1-0.2,0.4-0.7,1.7
	C75.2,46.1,75.8,47.8,75.8,47.8z M70.2,71.7c0,2-0.2,4.1-0.7,6.3l-1.4,1.3h-0.3c-0.8,0-2.1-0.1-3.7-0.4c-1.6-0.2-2.8-0.4-3.6-0.4
	c0,0-0.9,0.2-2.5,0.7c-0.7-0.3-1.1-1.4-1.1-3c0-3,0.3-5.1,0.8-6.2h4.2c0.4,0,1,0.1,1.7,0.3c0.8,0.2,1.3,0.3,1.7,0.3s0.9-0.1,1.5-0.3
	c0.7-0.2,1.2-0.3,1.5-0.3C69.6,70.1,70.2,70.6,70.2,71.7L70.2,71.7z M75.7,101.5c0,0.4-0.3,1.4-0.9,3s-1,2.6-1.3,3H63.2
	c-0.5-0.4-1.2-0.7-2.2-0.7c-2,0-3.2,0.1-3.6,0.4l0.3,0.3h-0.6l0.3-0.3c-0.3-0.4-0.4-0.9-0.4-1.4v-2.5c0-2,0.2-3.8,0.7-5.5
	c0.5,0.4,2.1,0.7,4.6,0.7c0.5,0,0.8-0.2,0.9-0.7h8.3c0.2,0.3,0.4,0.5,0.7,0.7h0.3c0.4,0,0.9-0.1,1.6-0.3c0.7-0.2,1.2-0.3,1.6-0.3
	c0,0-0.1,0-0.1,0.1c-0.2,0.1-0.3,0.2-0.5,0.5L74.9,99c0,0.3,0.1,0.7,0.4,1.2C75.6,100.8,75.7,101.2,75.7,101.5z M58.4,55.1
	c0,0.3-0.2,0.4-0.5,0.5c-0.3-0.1-0.4-0.3-0.4-0.5c0-0.3,0.2-0.5,0.4-0.7C58.2,54.6,58.4,54.8,58.4,55.1z M58.3,93
	c0,0.2-0.2,0.4-0.5,0.6c-0.3-0.1-0.4-0.3-0.4-0.6c0-0.3,0.2-0.5,0.4-0.7C58.1,92.5,58.3,92.7,58.3,93z M58.1,65.9l-0.3,0.6
	c-0.2-0.1-0.3-0.2-0.3-0.5v-0.2c0-0.3,0.1-0.5,0.3-0.5L58.1,65.9z M60.4,70.7c0-0.3-0.2-0.5-0.6-0.7c-0.3,0.2-0.4,0.4-0.4,0.7
	s0.1,0.5,0.4,0.6C60.2,71.2,60.4,71,60.4,70.7z M63.9,100.3l-0.4-0.4l-0.3,0.4l0.3,0.2L63.9,100.3z M64.6,98.4l-0.3-0.3l-0.4,0.3
	l0.4,0.3L64.6,98.4z M66,78l-0.3-0.2L65.4,78l0.3,0.2L66,78z M67.1,106.9c0-0.3-0.2-0.6-0.5-0.7c-0.4,0.1-0.5,0.4-0.6,0.7
	c0,0.2,0.2,0.4,0.6,0.5C67,107.4,67.1,107.2,67.1,106.9z M68,98.4c-0.1-0.2-0.4-0.3-0.7-0.3c-0.4,0-0.6,0.1-0.7,0.3l0.7,0.3L68,98.4
	z M68.5,106.9c0-0.3-0.2-0.6-0.5-0.7c-0.3,0.1-0.4,0.4-0.4,0.7c0,0.2,0.1,0.4,0.4,0.5C68.3,107.4,68.5,107.2,68.5,106.9z M72,106.9
	c0-0.3-0.2-0.6-0.5-0.7c-0.3,0.1-0.5,0.4-0.5,0.7c0,0.2,0.2,0.4,0.5,0.5C71.9,107.4,72,107.2,72,106.9z M78.5,43.1h-0.7v-0.7h0.7
	V43.1z M89.8,59.4c0,4.5-0.6,8.6-1.8,12l1.4-0.5l-0.1,31.2c-0.4,0.5-0.6,1.1-0.7,1.8c0.2,0.2,0.4,0.4,0.7,0.5v1.1
	c0,1.4-0.8,2.1-2.4,2.1c-0.4,0-1.1-0.1-1.9-0.4c-0.8-0.2-1.5-0.4-1.9-0.4h-1.8c-0.3,0-0.7,0.1-1,0.2l0.1,0.4h-0.8l0.7-0.4l-0.7-5.6
	l0.2-55.9c2.4-0.2,4-0.7,4.9-1.2v0.5c0.6,0,1.4-0.1,2.6-0.4c1.1-0.2,2-0.3,2.5-0.3c0,1.9,0,4.4,0,7.6C89.8,55.5,89.8,58,89.8,59.4
	L89.8,59.4z M81.6,66.7c0-0.2-0.2-0.5-0.4-0.6c-0.3,0.2-0.5,0.4-0.5,0.6s0.2,0.5,0.5,0.6C81.4,67.1,81.6,66.9,81.6,66.7z M81.5,83.5
	c0-0.3-0.2-0.5-0.4-0.6c-0.3,0.1-0.5,0.3-0.5,0.6c0,0.3,0.2,0.5,0.5,0.6C81.4,84,81.5,83.8,81.5,83.5z M81.5,88.9
	c0-0.2-0.1-0.5-0.4-0.6c-0.3,0.2-0.5,0.4-0.5,0.6s0.2,0.5,0.5,0.6C81.4,89.3,81.5,89.1,81.5,88.9z M82.4,46.9c0-0.3-0.2-0.5-0.6-0.7
	c-0.3,0.2-0.4,0.4-0.4,0.7c0,0.2,0.1,0.4,0.4,0.6C82.2,47.3,82.4,47.1,82.4,46.9z M83.2,73.2v-0.5h-0.7L83.2,73.2z M86.4,81.7
	c0-0.3-0.2-0.5-0.5-0.6c-0.3,0.1-0.5,0.3-0.5,0.6c0,0.2,0.2,0.4,0.5,0.5C86.3,82.1,86.4,81.9,86.4,81.7z M87.1,93.1
	c0-0.2-0.2-0.4-0.5-0.6c-0.3,0.1-0.5,0.3-0.5,0.6s0.2,0.4,0.5,0.6C86.9,93.5,87.1,93.3,87.1,93.1z M87.3,90v-0.5l-0.7,1.2
	C86.9,90.5,87.1,90.3,87.3,90z M87.6,73.6c0-0.3-0.1-0.6-0.3-0.9L87,72.8v0.8l0.1,0.7l0.3,0.2C87.5,74.2,87.6,73.9,87.6,73.6z
	 M89.9,69.7c0,0.2-0.2,0.4-0.5,0.5c-0.4-0.1-0.6-0.3-0.6-0.5c0-0.3,0.2-0.4,0.6-0.6C89.7,69.2,89.9,69.4,89.9,69.7z M91.3,63.7
	c0,0.2-0.2,0.4-0.5,0.6c-0.3-0.2-0.4-0.3-0.4-0.6c0-0.3,0.2-0.5,0.4-0.7C91.1,63.2,91.3,63.4,91.3,63.7z M108.1,46.2v3.4
	c0,1.9-0.3,3-0.8,3.2H91.5l-0.7-0.6c-0.1-1-0.1-1.7-0.1-1.9c0-2.9,0.6-4.6,1.8-5.2c0.9-0.4,2.5-0.7,4.9-0.7h1L97,45h2.8
	c-0.4-0.2-0.6-0.4-0.5-0.6c0-0.2,0.2-0.5,0.6-0.6c0.3,0.1,0.5,0.3,0.5,0.6c0,0.2-0.2,0.5-0.5,0.6h1.3c-0.3-0.2-0.4-0.4-0.4-0.6
	c0-0.2,0.2-0.4,0.4-0.6c0.4,0.1,0.5,0.3,0.5,0.6c0,0.2-0.2,0.5-0.5,0.6h6.2C107.6,45.2,107.8,45.5,108.1,46.2z M104,70.2l-0.2,0.8
	c-0.7,0.8-1.1,1.8-1.4,2.9l0.2,0.5l0.4,0.2c-0.2,0-0.5,0.2-0.7,0.4l-0.1,0.6l0.1,0.7l1.4-0.7v0.7c0,0.9-0.2,1.6-0.7,1.8H90.6v-6.6
	c0.3-0.3,2.3-0.5,6.2-0.5c0.8,0,2-0.1,3.5-0.4C102,70.3,103.2,70.2,104,70.2z M92.6,66.1c0,0.2-0.2,0.4-0.4,0.5
	c-0.4-0.1-0.5-0.3-0.6-0.5c0-0.3,0.2-0.5,0.6-0.6C92.5,65.6,92.6,65.8,92.6,66.1z M93.6,72.7L92.2,72v0.7l0.6,0.5L93.6,72.7
	L93.6,72.7z M95.4,74.5c0-0.3-0.2-0.6-0.6-0.7l-0.2,0.1c0-0.2-0.2-0.5-0.4-0.6c-0.4,0.2-0.6,0.4-0.6,0.6c0,0.3,0.2,0.5,0.5,0.7
	l0.2-0.1c0,0.3,0.1,0.5,0.4,0.6C95.2,75,95.4,74.8,95.4,74.5z M95.4,72.7c0-0.3-0.2-0.6-0.6-0.7c-0.3,0.2-0.4,0.4-0.4,0.7
	c0,0.3,0.2,0.4,0.4,0.5C95.2,73.2,95.4,73,95.4,72.7z M94.7,73.9c0,0.2-0.1,0.4-0.3,0.6C94.4,74.2,94.5,74.1,94.7,73.9z M96.3,79.3
	l-0.8,0.3l-0.7-0.3l0.1-0.2l0.6-0.1l0.6,0.1L96.3,79.3z M103,77.6c0-0.3-0.2-0.6-0.5-0.7c-0.3,0.1-0.4,0.4-0.4,0.7
	c0,0.2,0.1,0.4,0.4,0.5C102.8,78,103,77.8,103,77.6z M120.5,106.3c0,0.4-0.1,0.8-0.3,1.1c-0.4,0.1-0.7,0.1-1,0.1l-0.8-0.1l-0.6-0.4
	h-5.5l0.2-61.5c1.8-0.2,4.5-0.3,8.2-0.6v13.2c0,0.2-0.1,0.5-0.3,0.6c-0.5,0-1,0.1-1.5,0.2c-0.2,0.3-0.2,0.7-0.2,1
	c0.5,0.5,0.7,1.1,0.6,1.8l1.4-0.6C120.6,61.2,120.5,106.3,120.5,106.3z M115.1,68.4H113v0.8C113.7,69.1,114.4,68.8,115.1,68.4z
	 M115.6,59.5c0-0.2-0.2-0.5-0.5-0.6c-0.3,0.1-0.4,0.3-0.4,0.6s0.2,0.5,0.4,0.6C115.5,59.9,115.6,59.7,115.6,59.5z M116.3,64.9
	c0-0.2-0.2-0.5-0.5-0.7c-0.4,0.2-0.6,0.4-0.6,0.7c0,0.3,0.2,0.4,0.6,0.6C116.1,65.3,116.3,65.2,116.3,64.9z M118.4,57.6
	c0-0.4-0.2-0.6-0.7-0.5c0-0.3-0.2-0.6-0.6-0.7c-0.3,0.2-0.4,0.4-0.4,0.7s0.2,0.4,0.4,0.5h0.2c0.1,0.1,0.3,0.3,0.6,0.6
	C118.2,58.1,118.4,57.9,118.4,57.6z M117.7,67.3c0-0.3-0.2-0.5-0.6-0.7c-0.3,0.1-0.4,0.3-0.4,0.7c0,0.3,0.1,0.5,0.4,0.6
	C117.5,67.8,117.7,67.6,117.7,67.3z M117.5,70l-0.4-0.3l-0.3,0.3l0.3,0.2L117.5,70z M117.7,57.1L117.7,57.1c0,0.3-0.2,0.5-0.4,0.5
	l0,0C117.3,57.3,117.5,57.1,117.7,57.1z M122.5,63.1c0,0.3-0.2,0.5-0.4,0.6c-0.4-0.2-0.5-0.4-0.5-0.6c0-0.3,0.2-0.5,0.6-0.7
	C122.4,62.6,122.5,62.8,122.5,63.1z M122.5,67.9c0,0.2-0.2,0.4-0.4,0.5c-0.4-0.1-0.6-0.3-0.6-0.5c0-0.3,0.2-0.5,0.6-0.6
	C122.4,67.4,122.5,67.6,122.5,67.9z M122.5,82.3c0,0.3-0.2,0.5-0.4,0.7c-0.4-0.2-0.6-0.4-0.6-0.7c0-0.2,0.2-0.4,0.6-0.6
	C122.3,81.8,122.5,82,122.5,82.3z M122.5,87.2c0,0.3-0.2,0.5-0.4,0.6c-0.4-0.1-0.6-0.3-0.6-0.6c0-0.3,0.2-0.5,0.6-0.6
	C122.3,86.7,122.5,86.9,122.5,87.2z M122.4,91.9c0,0.3-0.2,0.5-0.4,0.6c-0.4-0.1-0.6-0.3-0.6-0.6c0-0.2,0.2-0.4,0.6-0.5
	C122.3,91.5,122.4,91.7,122.4,91.9z M140.7,48c0,0.9-0.5,2.5-1.4,4.8c-1.9,0-4.6,0.1-8.3,0.3s-6.4,0.3-8.2,0.3h-0.9
	c0-3.8,0.3-6.9,0.9-9.2c0.1,0.5,0.5,0.8,1.1,0.8c2.4,0,3.9-0.2,4.4-0.8v0.6c0.3,0,0.7-0.1,1.2-0.3s0.9-0.3,1.2-0.3s0.6,0.1,1.1,0.4
	c0.5,0.3,0.9,0.4,1.2,0.4s0.8-0.1,1.4-0.4c0.6-0.2,1.1-0.4,1.4-0.4c0.3,0,0.7,0.1,1.2,0.4c0.6,0.3,1,0.4,1.2,0.4s0.5-0.2,1-0.5
	s0.9-0.5,1.4-0.5v0.4c0-0.1-0.2,0.4-0.7,1.7L140.7,48L140.7,48z M135.1,71.9c0,2-0.2,4.1-0.7,6.3l-1.4,1.3h-0.3
	c-0.8,0-2.1-0.1-3.7-0.4c-1.6-0.2-2.8-0.4-3.6-0.4c0,0-0.9,0.2-2.5,0.7c-0.7-0.3-1.1-1.3-1.1-3c0-3,0.3-5.1,0.8-6.2h4.2
	c0.4,0,1,0.1,1.7,0.3c0.8,0.2,1.3,0.3,1.7,0.3s0.9-0.1,1.5-0.3s1.2-0.3,1.5-0.3C134.5,70.2,135.1,70.8,135.1,71.9L135.1,71.9z
	 M140.6,101.7c0,0.4-0.3,1.4-0.9,3c-0.6,1.6-1,2.6-1.3,3h-10.3c-0.5-0.4-1.2-0.7-2.2-0.7c-2,0-3.2,0.1-3.6,0.4l0.3,0.3H122l0.3-0.3
	c-0.3-0.4-0.4-0.9-0.4-1.4v-2.5c0-2,0.2-3.8,0.7-5.5c0.5,0.4,2.1,0.7,4.6,0.7c0.5,0,0.8-0.2,0.9-0.7h8.3c0.1,0.3,0.4,0.5,0.7,0.7
	h0.3c0.4,0,0.9-0.1,1.6-0.3c0.7-0.2,1.2-0.3,1.6-0.3h-0.1c-0.2,0.1-0.4,0.3-0.5,0.5l-0.1,0.7c0,0.3,0.1,0.7,0.4,1.2
	C140.5,101,140.6,101.4,140.6,101.7L140.6,101.7z M123.2,55.3c0,0.3-0.2,0.4-0.5,0.5c-0.3-0.1-0.4-0.3-0.4-0.5
	c0-0.3,0.1-0.5,0.4-0.7C123.1,54.7,123.2,55,123.2,55.3z M123.2,93.2c0,0.2-0.2,0.4-0.6,0.6c-0.3-0.1-0.4-0.3-0.4-0.6
	c0-0.3,0.1-0.5,0.4-0.7C123,92.7,123.2,92.9,123.2,93.2z M123,66.1l-0.3,0.6c-0.2-0.1-0.3-0.2-0.3-0.5V66c0-0.3,0.1-0.5,0.3-0.5
	L123,66.1z M125.3,70.9c0-0.3-0.2-0.5-0.6-0.7c-0.3,0.2-0.4,0.4-0.4,0.7s0.2,0.5,0.4,0.6C125.1,71.4,125.3,71.2,125.3,70.9z
	 M128.8,100.5l-0.4-0.4l-0.3,0.4l0.3,0.2L128.8,100.5z M129.5,98.6l-0.3-0.3l-0.4,0.3l0.4,0.3L129.5,98.6z M130.9,78.1l-0.3-0.2
	l-0.3,0.2l0.3,0.2L130.9,78.1z M132,107.1c0-0.3-0.2-0.6-0.5-0.7c-0.4,0.1-0.5,0.4-0.6,0.7c0,0.2,0.2,0.4,0.6,0.5
	C131.9,107.5,132,107.3,132,107.1z M132.9,98.6c-0.1-0.2-0.4-0.3-0.6-0.3c-0.4,0-0.6,0.1-0.7,0.3l0.7,0.3L132.9,98.6z M133.4,107.1
	c0-0.3-0.2-0.6-0.5-0.7c-0.3,0.1-0.4,0.4-0.4,0.7c0,0.2,0.1,0.4,0.4,0.5C133.2,107.5,133.4,107.4,133.4,107.1z M136.9,107.1
	c0-0.3-0.2-0.6-0.5-0.7c-0.3,0.1-0.5,0.4-0.5,0.7c0,0.2,0.2,0.4,0.5,0.5C136.7,107.5,136.9,107.4,136.9,107.1z M143.4,43.2h-0.7
	v-0.7h0.7V43.2z M159.5,101.1v2.6c0,1.6,0,2.4-0.1,2.6c-0.2,0.9-0.9,1.3-2.1,1.3c-0.3-0.2-0.8-0.3-1.4-0.5l-0.7,0.5
	c-0.4,0.1-0.8,0.1-1.1,0.1c-1.4,0-2.9-1-4.4-2.9c-1.5-1.8-2.2-3.4-2.2-4.7h2.8l-0.6-2.1c-0.6,0.4-1.3,0.6-2,0.6
	c-2.1,0-3.1-1.5-3.1-4.5c0-0.6,0-1.4,0.1-2.6v-2.7c0-3.1-0.1-7.7-0.2-14c-0.1-6.2-0.2-10.9-0.2-14c0-4.8,1.1-8.6,3.4-11.5
	c2.6-3.4,6.6-5,11.8-5v8.1c-2.3,1.7-3.8,3-4.4,4c-0.7,1.2-1.1,3-1.1,5.5c0.3,0.3,0.8,0.8,1.5,1.5c0,0.2-0.1,0.5-0.4,0.8
	c-0.3,0.3-0.4,0.6-0.4,0.8c0,0.1,0.3,0.6,0.8,1.5c0,0.6-0.2,1.5-0.7,2.7s-0.7,2.1-0.7,2.7c0.2,0.2,0.4,0.2,0.5,0.2
	c0.4-0.3,0.6-0.8,0.7-1.2c0.1,0.2,0.1,0.4,0.1,0.7s-0.1,0.6-0.3,1c-0.4,0.3-0.8,0.6-1.2,0.8c1,0.8,1.5,1.8,1.5,3
	c0,0.6-0.3,1.5-0.8,2.6s-0.8,2-0.8,2.6c0,2.3,0.5,3.8,1.4,4.4c-0.5,1.9-0.8,4-0.8,6.3c0,1.8,0.9,3.7,2.7,5.7h0.1
	c0.5,0.2,0.8,0.6,0.6,1.1C158.4,99.6,158.9,100.3,159.5,101.1L159.5,101.1z M146.7,99.8c0,0.2-0.1,0.5-0.4,0.7
	c-0.3-0.2-0.4-0.4-0.4-0.7c0-0.3,0.1-0.5,0.4-0.6C146.5,99.4,146.7,99.6,146.7,99.8L146.7,99.8z M150.3,101H149v0.7L150.3,101z
	 M151.8,98.7l-0.4-0.3l-0.3,0.3l0.3,0.3L151.8,98.7z M154.4,91.5c0-0.3-0.2-0.6-0.5-0.7c-0.3,0.2-0.5,0.4-0.5,0.7
	c0,0.2,0.2,0.4,0.5,0.5C154.2,91.9,154.3,91.7,154.4,91.5z M155.2,100.5l-0.3-0.3l-0.4,0.3l0.3,0.2L155.2,100.5z M155.9,60.8
	c0,0.3-0.2,0.5-0.6,0.6c-0.3-0.1-0.5-0.3-0.5-0.6s0.2-0.5,0.5-0.7C155.7,60.3,155.9,60.5,155.9,60.8z M156.5,68.1
	c0,0.3-0.2,0.4-0.5,0.5c-0.4-0.1-0.5-0.3-0.6-0.5c0-0.3,0.2-0.6,0.6-0.7C156.3,67.5,156.5,67.7,156.5,68.1z M157.8,98.9l-0.6-0.8
	c-0.3,0.2-0.4,0.4-0.4,0.6c0,0.3,0.2,0.5,0.6,0.6C157.3,99.2,157.8,98.9,157.8,98.9z M158.6,47c0-0.3-0.1-0.6-0.4-0.7
	c-0.4,0.1-0.6,0.4-0.6,0.7s0.2,0.4,0.6,0.5C158.4,47.4,158.6,47.3,158.6,47z M177.6,52.1l-0.2,0.4l-0.7,0.5v0.6
	c0.2,0.2,0.5,0.5,0.8,0.9l-0.1,0.3c-0.2,0.3-0.4,0.5-0.7,0.6V56l0.7,0.6c0,0.1,0.1,0.2,0.1,0.4c0,0.3-0.3,0.5-0.8,0.8v7l-4.1,0.2
	l-0.7,0.6c-0.2,0-0.4,0.1-0.7,0.1s-0.8-0.1-1.3-0.4s-0.8-0.4-0.9-0.4c-0.5,0-0.9,0.1-1.3,0.2c-0.4-2.3-0.8-4.6-1.4-6.9
	c-0.8-3.5-2.2-5.3-4.2-5.3c-0.2,0-0.4,0-0.7,0l-0.4-0.1c-0.2-0.3-0.3-0.7-0.3-1v-7.5c1.3,0,3.2,0.3,5.8,1c2.5,0.7,4.5,1,5.8,1
	c0,1.2,0.5,2.4,1.6,3.7C175.1,51.4,176.3,52.1,177.6,52.1z M170.3,104.7c-0.8,1-2,1.8-3.4,2.5l0.7,0.5h-0.2c-0.2,0-0.4,0.1-0.5,0.1
	c-0.3,0-0.5,0-0.7-0.1l-0.6-0.5c-0.3,0.1-0.8,0.3-1.5,0.5h-1.3c-1.2,0-1.9-0.2-2.2-0.5v-6.6c0.6-0.4,1.5-0.7,2.9-0.7l0.6,0.7
	c0.5-0.3,1.2-0.6,2.1-0.8v0.8l-2.7,1.2l-0.2,0.2l0.2,0.3c0.4,0.3,0.9,0.4,1.4,0.5c0.4-0.2,0.9-0.3,1.4-0.5c0.5,0,0.8,0.5,0.8,1.5
	c0,0.8-0.3,1.3-0.8,1.6h0.7c0.1,0,0.6-0.1,1.2-0.4C168.8,104.8,169.6,104.7,170.3,104.7z M166.8,47c0-0.3-0.1-0.6-0.4-0.7
	c-0.3,0.1-0.4,0.4-0.4,0.7s0.1,0.4,0.4,0.5C166.7,47.5,166.8,47.3,166.8,47L166.8,47z M167.1,43.4h-0.7v-0.8h0.7V43.4z M167.5,93.3
	c0,0.3-0.2,0.4-0.6,0.6c-0.4-0.1-0.5-0.3-0.6-0.6c0-0.3,0.2-0.5,0.6-0.7C167.3,92.8,167.5,93,167.5,93.3z M176.9,92.1
	c0,1.9-0.6,2.9-1.6,2.9l-0.1,0.7c0,0.3,0.2,1.3,0.7,3c-0.1,0.4-0.4,0.8-0.7,1.2l-0.8-0.6c0,0.1,0,0.2,0.1,0.3c0,0.2-0.1,0.5-0.3,0.8
	c-0.4,0.2-0.7,0.2-1,0.2l-0.7-0.1l1.4-1.8c-0.2,0.1-0.4,0.1-0.6,0.1c-0.6,0-2.3-0.6-5-1.9l0.3-0.4l0.4-0.2c1.4,0.4,2.3,0.6,2.6,0.7
	c1.1,0,1.8-0.4,2.3-1.3h-0.7c-0.3,0-0.7,0.2-1.4,0.6v-0.6h-1.1c0-1.1-0.6-1.9-1.6-2.4l2.1-1.2h-2.1l1.4-1.2c0-0.2-0.1-0.3-0.2-0.5
	l-0.4-0.1l-2.8,0.6v-4.8h4.2l-0.5,0.2l-0.3,0.4c0,0.8,0.4,1.4,1.4,2c0.8,0.5,1.6,0.7,2.6,0.7c0,0.3-0.1,0.7-0.2,1.1
	c-0.4,0.4-0.8,0.7-1.1,0.9c-0.1,0.2-0.2,0.5-0.2,0.8L176.9,92.1L176.9,92.1z M168.3,95.1l-0.6,0.6l-0.4,0.1l-0.3-0.1
	c0.4-0.4,0.8-0.7,1-0.7C168,95,168.1,95.1,168.3,95.1z M168.3,100.6c-0.2,0.2-0.4,0.4-0.6,0.5l-0.4,0.1l-0.3-0.1L168.3,100.6z
	 M168.3,89.7v-1.2l-0.6,0.6L168.3,89.7z M169.7,66.3c0,0.2-0.2,0.4-0.6,0.5c-0.3-0.1-0.5-0.3-0.5-0.5c0-0.3,0.2-0.5,0.5-0.7
	C169.5,65.7,169.7,66,169.7,66.3z M169.6,86.7c0-0.2-0.2-0.5-0.6-0.6c-0.3,0.2-0.5,0.4-0.5,0.6s0.2,0.4,0.5,0.5
	C169.4,87.1,169.6,86.9,169.6,86.7z M169.4,103.2l-0.4,0.4l-0.3-0.4l0.3-0.3L169.4,103.2z M170.3,59.1c0-0.3-0.1-0.5-0.4-0.7
	c-0.4,0.2-0.6,0.4-0.6,0.7s0.2,0.4,0.6,0.5C170.1,59.5,170.3,59.3,170.3,59.1z M170.9,93.3c0-0.3-0.2-0.5-0.6-0.7
	c-0.3,0.2-0.4,0.4-0.4,0.7c0,0.3,0.1,0.4,0.4,0.6C170.7,93.7,170.9,93.6,170.9,93.3z M171.6,100.6c0,0.2-0.2,0.4-0.5,0.5
	c-0.4-0.1-0.6-0.3-0.6-0.5c0-0.3,0.2-0.5,0.6-0.7C171.4,100.1,171.6,100.3,171.6,100.6z M172.2,93.3c0-0.3-0.1-0.5-0.4-0.7
	c-0.3,0.2-0.5,0.4-0.5,0.7c0,0.2,0.2,0.4,0.5,0.6C172.1,93.7,172.2,93.6,172.2,93.3L172.2,93.3z M172.4,102.3l-0.7,1.2l-0.1-0.4
	C171.8,102.8,172,102.5,172.4,102.3z M173,94.5c0-0.2-0.2-0.5-0.5-0.6c-0.3,0.2-0.4,0.4-0.4,0.6s0.1,0.5,0.4,0.6
	C172.8,95,173,94.8,173,94.5z M175.7,85.3c0,1.2-0.6,1.9-1.8,1.9c-0.4,0-0.8-0.2-1.4-0.5C173.1,85.8,174.2,85.3,175.7,85.3z
	 M174.3,97.6c0-0.2-0.1-0.5-0.4-0.6c-0.4,0.2-0.6,0.4-0.6,0.6c0,0.3,0.2,0.4,0.6,0.5C174.1,98,174.3,97.8,174.3,97.6z M174.6,60.8
	v-0.6l-0.6,0.6H174.6z M175.1,94.5c0-0.2-0.2-0.5-0.6-0.6c-0.3,0.2-0.4,0.4-0.4,0.6s0.1,0.5,0.4,0.6C174.9,95,175.1,94.8,175.1,94.5
	L175.1,94.5z M176,90.3l-0.7,0.6v-0.6H176z M176.6,88.5H176v-0.6L176.6,88.5z M177.1,86.7c0,0.2-0.2,0.4-0.6,0.5
	c-0.3-0.1-0.4-0.3-0.4-0.5c0-0.3,0.1-0.5,0.4-0.6C176.9,86.2,177.1,86.4,177.1,86.7z M178.4,86.7c0,0.2-0.1,0.4-0.4,0.5
	c-0.3-0.1-0.5-0.3-0.5-0.5s0.2-0.5,0.5-0.6c-0.3-0.1-0.5-0.3-0.5-0.6c0-0.3,0.2-0.4,0.5-0.6c0.3,0.1,0.4,0.3,0.4,0.6
	c0,0.3-0.1,0.5-0.4,0.6C178.3,86.2,178.4,86.4,178.4,86.7L178.4,86.7z M213.9,45.3c0,4-0.5,6.5-1.4,7.7l-31.7-0.1v-7.5
	c0.6,0,1.4-0.2,2.4-0.5s1.8-0.5,2.4-0.5c0.3,0,0.8,0.1,1.4,0.4c0.6,0.2,1,0.4,1.1,0.4c0.6,0,1.2-0.2,1.8-0.7l0.2,0.1
	c0.5-0.1,1.3-0.2,2.5-0.2l0.9,0.2l0.5,0.6h5.4c0.4-1,0.9-1.5,1.5-1.5v1.5h4.8c0.1-0.5,0.9-0.8,2.4-0.8c0.4,0,0.9,0.1,1.5,0.4
	c0.6,0.3,1.2,0.4,1.5,0.4c1.4-0.5,2.3-0.8,2.8-0.8h0.1L213.9,45.3L213.9,45.3z M186.7,45.2c0-0.3-0.1-0.5-0.4-0.7
	c-0.4,0.2-0.6,0.4-0.6,0.7s0.2,0.4,0.5,0.5C186.6,45.6,186.7,45.5,186.7,45.2z M190.2,45.2l-0.3-0.6l-0.7,0.2c0,0.1-0.1,0.2-0.1,0.4
	c0,0.3,0.2,0.4,0.7,0.5C190.1,45.7,190.2,45.5,190.2,45.2L190.2,45.2z M191.7,45.2c0-0.3-0.2-0.5-0.6-0.7c-0.3,0.2-0.5,0.4-0.5,0.7
	s0.2,0.4,0.5,0.5C191.5,45.7,191.7,45.5,191.7,45.2z M203.7,90.3h-2.5l-0.1,17.5h-5.4c-0.3-0.4-0.7-0.6-1-0.6c-0.1,0-0.5,0.1-1,0.3
	s-0.9,0.4-1.2,0.3c-0.6,0-1-0.1-1.4-0.4c-0.1-0.6-0.2-1.2-0.2-1.8l0.1-50.9l0.8-0.5l2.5-0.1h1.9c2.4,0,4.2,0.2,5.1,0.6L201.2,74
	l0.4,0.2l0.3,0.4V75c0,0.4-0.1,1-0.4,1.7s-0.4,1.4-0.4,1.8c0,0.6,0.2,1,0.8,1.1l-0.8,0.5v9C202.9,89.4,203.7,89.8,203.7,90.3
	L203.7,90.3z M192.9,45.2c0-0.3-0.2-0.5-0.5-0.7c-0.3,0.2-0.4,0.4-0.4,0.7s0.1,0.4,0.4,0.5C192.8,45.7,192.9,45.5,192.9,45.2z
	 M193.6,107.2c0-0.3-0.2-0.6-0.7-0.7c-0.3,0.1-0.4,0.4-0.4,0.7c0,0.2,0.1,0.4,0.4,0.5C193.4,107.7,193.6,107.5,193.6,107.2
	L193.6,107.2z M194.9,85.5c0-0.2-0.2-0.4-0.5-0.6c-0.3,0.1-0.4,0.3-0.4,0.6c0,0.3,0.1,0.5,0.4,0.6C194.7,86,194.9,85.8,194.9,85.5
	L194.9,85.5z M204.7,54.2c0,0.2-0.1,0.4-0.4,0.5c-0.4-0.1-0.6-0.3-0.6-0.5s0.2-0.4,0.6-0.6C204.5,53.8,204.7,54,204.7,54.2z
	 M205.2,66.3c0,0.2-0.1,0.4-0.4,0.6c-0.3-0.1-0.4-0.3-0.4-0.6c0-0.2,0.1-0.4,0.4-0.6C205.1,65.8,205.2,66,205.2,66.3L205.2,66.3z
	 M205.2,74.7c0,0.2-0.1,0.4-0.4,0.5c-0.3-0.1-0.4-0.3-0.4-0.5c0-0.3,0.1-0.5,0.4-0.6C205.1,74.2,205.2,74.4,205.2,74.7z M205.2,80.7
	c0,0.3-0.1,0.5-0.4,0.6c-0.3-0.1-0.4-0.3-0.4-0.6c0-0.2,0.1-0.5,0.4-0.6C205.1,80.3,205.2,80.5,205.2,80.7L205.2,80.7z M230,107.9
	c-9.7-2.6-14.5-7.6-14.5-15.1l0.1-36.8c0-3.4,1.2-5.1,3.7-5c0-2,0.5-3.2,1.5-3.6c0.5-0.2,1.9-0.3,4.1-0.4c1.6-0.1,2.5-0.6,2.9-1.7
	v-0.6l0.4-0.5c0.6-0.1,1.2-0.1,2-0.1v8.1c-2.5,1.5-4,3.8-4.6,6.9c-0.2,1.1-0.3,3.9-0.4,8.2v10c0,6.4,0.2,10.1,0.7,10.8
	c0.3,0.5,0.8,1.3,1.5,2.4c-0.5,0.5-1.2,1.3-2.1,2.4c0.4,1,1.1,2.2,2.3,3.7c1.4,1.7,2.2,2.8,2.6,3.5L230,107.9L230,107.9z
	 M221.4,50.5v-0.2c0-0.3-0.1-0.6-0.3-0.9l-0.3,0.2l-0.1,0.8l0.1,0.6l0.3,0.2C221.3,51,221.4,50.7,221.4,50.5L221.4,50.5z
	 M224.9,69.7l-0.3-0.3l-0.3,0.3l0.3,0.2L224.9,69.7z M225.6,90.4c0-0.2-0.2-0.4-0.5-0.5c-0.3,0.1-0.4,0.3-0.4,0.5
	c0,0.3,0.1,0.5,0.4,0.6C225.5,90.9,225.6,90.7,225.6,90.4z M227.1,93.4c0,0.3-0.1,0.4-0.4,0.6c-0.4-0.1-0.5-0.3-0.5-0.6
	c0-0.3,0.2-0.5,0.6-0.7C226.9,92.9,227.1,93.1,227.1,93.4z M227.6,58.9l-0.2,0.2l-0.4-0.3l0.4-0.3C227.4,58.5,227.6,58.9,227.6,58.9
	z M228.5,80.2c0,0.2-0.2,0.4-0.6,0.5c-0.3-0.1-0.4-0.3-0.4-0.5c0-0.3,0.1-0.4,0.4-0.5C228.3,79.7,228.5,79.9,228.5,80.2z M229.2,79
	c0,0.3-0.2,0.5-0.5,0.7c-0.3-0.2-0.5-0.4-0.5-0.7c0-0.2,0.2-0.5,0.5-0.6C229,78.5,229.2,78.7,229.2,79z M229.1,89.2
	c0,0.3-0.2,0.5-0.5,0.6c-0.3-0.2-0.5-0.4-0.5-0.6s0.2-0.5,0.5-0.6C229,88.8,229.1,89,229.1,89.2z M248.7,70l-0.7,0.5v26.6
	c-0.8,0.7-2,2.2-3.6,4.6c-1.2,1.8-2.8,3.2-4.8,4.3c-1.6,0.9-3,1.3-4.1,1.3c-0.9,0-2.3-0.2-4.1-0.7c0-0.3,0-0.8-0.1-1.5
	c0-0.7-0.1-1.1-0.1-1.4c0-1.6,1.1-3.5,3.4-5.6c2.2-2.1,3.4-3.9,3.4-5.3l0.1-25.2c0.4-0.2,0.8-0.4,1-0.7c-0.1-0.3-0.4-0.7-0.8-1.2
	c-0.4-8.6-2.1-12.9-4.9-12.9c-0.4,0-0.8,0-1.1,0.1l0.7-0.5l-1.4-1.8V44h3.5c0.6,0.6,0.8,1.6,0.6,3.1l0.6-0.6l0.5-1.7l0.6-0.3
	l0.4,0.1c0.3,0.5,0.6,1.1,0.7,1.8l0.8-1.2l4.1,0.5c-0.1,0.3-0.4,1-0.9,2c-0.4,0.9-0.6,1.6-0.5,2.2c-0.6-0.5-1.3-0.7-2.4-0.7
	c-0.3,0-0.7,0.1-1.2,0.2c-0.3,0.3-0.5,0.7-0.5,1c0,1.2,0.9,1.8,2.8,1.8c0.5,0,1.2-0.1,2.1-0.3c0.9-0.2,1.6-0.3,2.1-0.2l0.6,0.5
	c1.2,0,1.9-0.6,2-1.8c0,1-0.1,1.5-0.1,1.6c0,0.9,0.2,2.3,0.8,4c0.5,1.8,0.8,3.1,0.8,4s-0.3,2.2-0.8,4c-0.5,1.8-0.8,3.1-0.8,4
	C247.2,68.9,247.7,69.5,248.7,70L248.7,70z M238.3,53.7V53h-0.6L238.3,53.7L238.3,53.7z M238.3,54.8l-0.2-0.2l-0.4,0.2l0.3,0.3
	L238.3,54.8L238.3,54.8z M239.3,75.4l-0.3-0.6l-0.3,0.1l-0.1,0.5l0.1,0.5L239,76L239.3,75.4z M240.8,55.3l-0.3-0.4l-0.3,0.3l0.3,0.4
	L240.8,55.3z M243.9,50.7c-0.3-0.1-0.5-0.2-0.7-0.4l-0.1-0.8l0.1-0.5c0.2,0,0.5,0.2,0.7,0.4l0.1,0.8L243.9,50.7z M245.2,76l-0.4-0.3
	l-0.2,0.3l0.2,0.3L245.2,76z M245.5,74.6l-0.3-0.4l-0.3,0.3l0.3,0.3L245.5,74.6z M247.1,70c0-0.3-0.1-0.5-0.4-0.6
	c-0.3,0.1-0.5,0.3-0.5,0.6c0,0.2,0.2,0.4,0.5,0.5C246.9,70.4,247.1,70.3,247.1,70z M247.1,73.6c0-0.2-0.1-0.4-0.4-0.6
	c-0.3,0.1-0.5,0.3-0.5,0.6c0,0.2,0.2,0.4,0.5,0.6C246.9,74.1,247.1,73.9,247.1,73.6z M247.5,76c0-0.5-0.3-0.9-0.8-1.2V76H247.5z
	 M249.2,55.6c0,0.2-0.1,0.4-0.4,0.5c-0.4-0.1-0.6-0.3-0.5-0.5c0-0.3,0.2-0.6,0.6-0.7C249.1,55,249.2,55.3,249.2,55.6z M264.4,90.4
	c-0.8,0-2,0.5-3.7,1.3l1.4,0.5c0,0.5,0,1-0.1,1.6c0,1.4,0.2,2.1,0.7,2.1v7.2c0.4,0.2,0.9,0.4,1.5,0.7v0.2l-0.1,0.3
	c-1,0.9-2.4,1.9-3.9,2.9c-0.1,0.1-2.3,0.1-6.4,0.1c-0.3,0.2-0.5,0.4-0.7,0.5h-0.8l0.8-20.5l2.1-1.8h-0.9l-0.5-0.5l0.6-0.6h-1.7
	c0-1.1,0.2-2.7,0.4-4.8c0-0.2,0.3-0.7,0.7-1.3h-0.6c0-2.8-0.1-6.9-0.4-12.5c-0.3-5.6-0.4-9.8-0.4-12.5v-8c0.9-0.5,1.9-0.8,2.8-0.8
	l0.7,0.1c-1.3,0.1-2,0.8-2,2c0,0.1,0,0.6,0.1,1.5h0.4l1.4-2.4h0.4c0,1.4,0.6,2.2,1.7,2.4c0.4-0.1,0.9-0.3,1.4-0.6h2.7
	c0.2-0.4,0.7-1,1.5-1.8v7.9c-0.4,0.3-0.6,0.7-0.8,1.2l0.4,0.4l0.4,0.2c-0.7,5.8-1,11-0.9,15.6c-0.4,0.1-0.9,0.3-1.4,0.6
	c0.4,0.2,0.5,0.4,0.5,0.6c0,0.3-0.2,0.5-0.5,0.7l-0.4-0.4V73c1.8,0,2.7,1.1,2.7,3.2c0,0.3-0.1,0.7-0.4,1.3c-0.3,0.6-0.4,1-0.4,1.3
	c0,0.5,0.3,1.3,0.8,2.5l-0.4,0.1l-0.4-0.1c-0.3-0.4-0.5-0.8-0.6-1.2h-5.5c1,1.6,3,2.4,6.1,2.4c0.3,0,0.6,0,0.9-0.1
	c-0.4,0.5-0.7,0.9-0.8,1.2c0.2,0.3,0.5,0.5,0.8,0.7v4.2C264,88.8,264.3,89.4,264.4,90.4L264.4,90.4z M253.7,86.3
	c0,0.2-0.2,0.5-0.5,0.6c-0.4-0.2-0.6-0.4-0.6-0.6s0.2-0.5,0.6-0.6C253.5,85.8,253.7,86,253.7,86.3z M254.4,65.2
	c0-0.2-0.1-0.5-0.4-0.7c-0.4,0.2-0.6,0.4-0.6,0.7c0,0.3,0.2,0.4,0.5,0.6C254.2,65.7,254.4,65.5,254.4,65.2z M254.4,70.1
	c0-0.3-0.1-0.5-0.4-0.6c-0.4,0.1-0.5,0.3-0.6,0.6c0,0.3,0.2,0.4,0.6,0.5C254.2,70.5,254.4,70.3,254.4,70.1z M255,76
	c0-0.2-0.2-0.5-0.5-0.6c-0.3,0.2-0.4,0.4-0.4,0.6c0,0.3,0.1,0.5,0.4,0.7C254.8,76.5,255,76.3,255,76z M258,71.8h-0.7l-0.8,0.1
	c-0.3,0.2-0.5,0.3-0.5,0.5h0.7C256.8,72.4,257.2,72.2,258,71.8z M257.2,67c0-0.2-0.2-0.5-0.5-0.6c-0.3,0.2-0.4,0.4-0.4,0.6
	c0,0.3,0.1,0.5,0.4,0.6C257,67.5,257.2,67.3,257.2,67z M256.9,64.9l-0.3-0.3l-0.3,0.3l0.3,0.2L256.9,64.9z M256.9,76.9l-0.3-0.3
	l-0.3,0.3l0.3,0.2C256.6,77.2,256.9,76.9,256.9,76.9z M256.8,82.3l-0.3-0.3l-0.3,0.3l0.3,0.2C256.6,82.6,256.8,82.3,256.8,82.3z
	 M257.3,79l-0.3-0.2c-0.3,0-0.4,0.1-0.4,0.2l0.3,0.3L257.3,79z M257.8,89.9c0-0.3-0.2-0.5-0.5-0.7c-0.3,0.2-0.5,0.4-0.5,0.7
	c0,0.2,0.2,0.4,0.5,0.5C257.6,90.3,257.8,90.2,257.8,89.9z M258,94.1l-0.3-0.1c-0.3,0-0.5,0.2-0.5,0.5l0.1,0.2l0.6-0.1
	C257.9,94.6,258,94.1,258,94.1z M258.4,92.9c0-0.2-0.1-0.5-0.4-0.7c-0.4,0.2-0.5,0.4-0.5,0.7c0,0.2,0.2,0.4,0.5,0.6
	C258.3,93.4,258.4,93.2,258.4,92.9z M259.2,72.4c0-0.2-0.2-0.5-0.5-0.6c-0.3,0.2-0.5,0.4-0.5,0.6s0.2,0.5,0.5,0.7
	C259,72.9,259.2,72.7,259.2,72.4z M259.4,76.7l-0.3-0.2l-0.4,0.2l0.3,0.2L259.4,76.7z M259.9,67.6c0-0.3-0.2-0.5-0.5-0.7
	c-0.4,0.1-0.5,0.3-0.5,0.7c0,0.3,0.2,0.5,0.5,0.6C259.7,68.1,259.9,67.9,259.9,67.6z M259.9,79.1c0-0.2-0.2-0.5-0.5-0.6
	c-0.4,0.2-0.5,0.4-0.5,0.6c0,0.3,0.2,0.5,0.5,0.7C259.7,79.6,259.9,79.3,259.9,79.1L259.9,79.1z M260,94.1l-0.4-0.2
	c-0.2,0-0.3,0.1-0.3,0.2l0.3,0.2L260,94.1z M260.3,77.5l-0.2-0.3l-0.4,0.3l0.4,0.4L260.3,77.5z M261.3,65.3c0-0.2-0.2-0.5-0.5-0.7
	c-0.3,0.2-0.5,0.4-0.5,0.7c0,0.3,0.2,0.4,0.5,0.6C261.1,65.7,261.3,65.5,261.3,65.3L261.3,65.3z M262.6,68.8c0-0.2-0.2-0.5-0.5-0.6
	c-0.3,0.2-0.5,0.4-0.5,0.6s0.1,0.5,0.5,0.6C262.5,69.3,262.6,69.1,262.6,68.8z M262.6,77.9c0-0.3-0.2-0.6-0.5-0.7
	c-0.3,0.2-0.5,0.4-0.5,0.7c0,0.2,0.2,0.4,0.5,0.5C262.4,78.3,262.6,78.1,262.6,77.9z M263.3,93.5c0,0.2-0.2,0.4-0.6,0.6
	c-0.3-0.1-0.4-0.3-0.4-0.6c0-0.3,0.1-0.5,0.4-0.7C263.1,93,263.3,93.2,263.3,93.5z M263.5,94.7h-0.8l0.8-0.6V94.7z M287.6,104.4
	l-0.6-0.1c-0.5,0-1.2,0.6-2,1.9c-0.8,1.2-1.4,1.9-2,1.9c0-0.6-0.3-1-0.9-1.3c-0.2,0.8-0.9,1.2-2.1,1.2h-2.7c-2.2,0-3.3-0.4-3.3-1.2
	c0-0.3,0.2-0.7,0.5-1.1c-1.5-5.3-3.5-13.1-6.1-23.5h-2.7c0.6-0.2,1.3-0.7,2.1-1.3H265V75l0.3-0.6H265c-0.3-0.1-0.4-0.3-0.4-0.6
	c0-0.3,0.1-0.5,0.4-0.6c0.6,0.1,0.8,0.4,0.5,0.9c1.5-1,4.4-1.6,8.8-2.1c-0.6-0.1-0.9-0.6-0.9-1.5c0-0.8,0.2-2,0.7-3.5
	s0.7-2.7,0.7-3.5c0-6.2-3.2-9.6-9.7-10.2V46c3.2-0.2,5.5-0.5,7-1.2v1c5.5,0,8.2,1.3,8.2,3.8c0,0.2-0.1,0.5-0.4,1s-0.4,0.7-0.4,0.9
	c0,0.5,0.1,0.7,0.4,0.7c0.4,0,0.7-0.1,1-0.2v-1h1c0,1-0.5,1.8-1.5,2.3c0.4-0.2,0.8-0.3,1.1-0.3c2.6,0,4,4.1,4.3,12.4l1.4,1.2
	c-1.4,0.3-2.5,1.7-3.4,4.2c-0.5,1.6-1.2,3.4-2.1,5.4c-0.9,0.7-1.8,1.4-2.6,2.1c-1.2,0.9-1.8,1.8-1.8,2.4c0,0.8,1,1.9,2.9,3.3
	l-0.4,0.2l-0.3,0.4c1,1.5,1.7,2.9,2.1,4.3c0.1,0.4,0.2,1,0.3,1.8c0.2,1.4,0.5,2.7,0.7,3.9c0.4,2.3,1.3,4,2.5,5l0.1,0.2
	c-0.2,0.4-0.5,0.9-0.9,1.6v0.3C284.1,102.6,285.3,103.5,287.6,104.4L287.6,104.4z M265.4,94.1c0,0.3-0.2,0.4-0.6,0.6
	c-0.3-0.1-0.4-0.3-0.4-0.6s0.1-0.4,0.4-0.6C265.2,93.7,265.4,93.9,265.4,94.1z M265.6,66.4l-0.4,0.3l-0.3-0.3l0.4-0.2L265.6,66.4z
	 M266.1,56.2c0,0.3-0.2,0.5-0.5,0.6c-0.3-0.1-0.5-0.3-0.5-0.6s0.2-0.5,0.5-0.6C266,55.7,266.1,55.9,266.1,56.2z M266.1,76
	c0-0.2-0.2-0.5-0.5-0.6c-0.3,0.2-0.5,0.4-0.5,0.6c0,0.3,0.2,0.5,0.5,0.7C265.9,76.5,266.1,76.3,266.1,76z M273,88.1
	c0-0.3-0.2-0.5-0.5-0.7c-0.3,0.2-0.4,0.4-0.4,0.7c0,0.3,0.1,0.5,0.4,0.6C272.8,88.6,273,88.4,273,88.1z M273.5,89l-0.4-0.3l-0.3,0.3
	l0.3,0.3L273.5,89z M274.3,77.3c0-0.2-0.1-0.5-0.4-0.6c-0.4,0.2-0.5,0.4-0.5,0.6s0.2,0.5,0.5,0.6C274.2,77.8,274.3,77.6,274.3,77.3
	L274.3,77.3z M275.9,88.1c-0.1-0.2-0.3-0.4-0.5-0.6l-0.9-0.1h-0.7c0.1,0.4,0.4,0.9,0.6,1.3h0.7C275.5,88.5,275.7,88.3,275.9,88.1z
	 M275,94.1c0-0.3-0.2-0.4-0.5-0.6c-0.3,0.1-0.4,0.3-0.5,0.6c0,0.3,0.1,0.4,0.4,0.6C274.8,94.6,275,94.4,275,94.1z M275.7,92.3
	c0-0.2-0.2-0.4-0.6-0.5c-0.3,0.1-0.5,0.3-0.5,0.5c0,0.3,0.2,0.5,0.5,0.6C275.5,92.8,275.7,92.6,275.7,92.3L275.7,92.3z M276.3,64.4
	l-0.3-0.3l-0.3,0.3l0.3,0.2L276.3,64.4L276.3,64.4z M278.7,53.2c-0.1,0-0.2-0.1-0.4-0.1h-0.2c-0.2,0.1-0.5,0.3-0.8,0.7h0.7
	L278.7,53.2z M278.5,71.9c0-0.3-0.1-0.5-0.4-0.7c-0.4,0.1-0.6,0.3-0.6,0.7c0,0.2,0.2,0.4,0.5,0.5C278.3,72.4,278.5,72.2,278.5,71.9z
	 M279.1,88.8c0-0.2-0.2-0.5-0.5-0.6c-0.3,0.2-0.4,0.4-0.4,0.6c0,0.3,0.1,0.4,0.4,0.6C279,89.2,279.1,89,279.1,88.8z M279.9,76.1
	c0-0.2-0.2-0.5-0.5-0.6c-0.3,0.2-0.4,0.4-0.4,0.6c0,0.3,0.1,0.5,0.4,0.7C279.7,76.6,279.9,76.3,279.9,76.1z M282.9,61.1
	c-0.7,0-1.3,0.4-2,1.2c-0.5,0.6-1,1.2-1.5,1.9h0.4C281.4,64.1,282.4,63.1,282.9,61.1z M280.1,71.9h-0.7v0.6L280.1,71.9z M280.5,73.1
	c0-0.3-0.1-0.5-0.4-0.7c-0.3,0.2-0.5,0.4-0.5,0.7c0,0.2,0.2,0.4,0.5,0.5C280.3,73.6,280.5,73.4,280.5,73.1z M280.4,107.5
	c0-0.3-0.1-0.6-0.4-0.7c-0.3,0.1-0.5,0.4-0.5,0.7l0.3,0.5h0.3L280.4,107.5z M281.3,70.7c0-0.2-0.2-0.4-0.5-0.6
	c-0.4,0.1-0.6,0.3-0.5,0.6c0,0.3,0.2,0.5,0.5,0.6C281.1,71.1,281.3,70.9,281.3,70.7z M282,48.4c0,0.3-0.1,0.5-0.4,0.7
	c-0.4-0.2-0.5-0.4-0.5-0.7c0-0.2,0.2-0.5,0.5-0.6C281.9,47.9,282,48.1,282,48.4z M282.6,72c0-0.3-0.1-0.5-0.4-0.7
	c-0.3,0.1-0.4,0.3-0.4,0.7c0,0.2,0.1,0.4,0.4,0.5C282.4,72.4,282.6,72.2,282.6,72z M282.5,90c0,0.2-0.1,0.4-0.4,0.5
	c-0.3-0.1-0.4-0.3-0.4-0.5c0-0.3,0.1-0.5,0.4-0.7C282.4,89.5,282.5,89.7,282.5,90z M286.7,96c0,0.3-0.2,0.4-0.5,0.5
	c-0.3-0.1-0.4-0.3-0.4-0.5c0-0.3,0.1-0.5,0.4-0.6C286.5,95.5,286.7,95.7,286.7,96z M287.7,58c-0.1,0.2-0.4,0.3-0.7,0.3l-0.8-0.3
	l0.2-0.1l0.6-0.1l0.5,0.1L287.7,58z"/>
<path class="st1" d="M30.1,7.4c0,0,1.5-3.5,2.2-4.9c0.2-0.4,1-1.7,0.9-1.5c-1.7,3.2-0.3,6.3-0.3,6.4S33,7.5,33,7.5h8.2L27,41H15.9
	L1.8,7.4h12.1c0,0,5,14.2,6.1,17.4c0.1,0.3,0.6,1.8,0.7,1.8c0.8,5.2-1.3,9.5-1.3,9.5s2.3-0.6,3-3.9c0.5-3.8,0.2-4.6,0.2-4.6
	L30.1,7.4z M71,32.5V41H43.2V7.4h27.2V16H54.2v3.9h14.1V28H54.2v4.4L71,32.5L71,32.5z M81.8,39.5c-2.8-1.5-5.1-3.6-6.7-6.2
	c-1.6-2.7-2.4-5.7-2.4-9.1s0.8-6.4,2.4-9.1s3.8-4.7,6.7-6.2c2.8-1.5,6-2.2,9.5-2.2c3.2,0,6.1,0.6,8.7,1.7c2.5,1.2,4.6,2.8,6.3,5
	l-7.1,6.4c-2.1-2.6-4.5-3.9-7.3-3.9c-2.4,0-4.3,0.8-5.7,2.3c-1.4,1.5-2.1,3.6-2.1,6.1s0.7,4.6,2.1,6.1s3.3,2.3,5.7,2.3
	c2.8,0,5.2-1.3,7.3-3.9l7.1,6.4c-1.7,2.2-3.8,3.8-6.3,5s-5.4,1.7-8.7,1.7C87.8,41.8,84.7,41,81.8,39.5z M118.1,16.2h-9.8V7.5h30.8
	v8.8h-9.8V41H118C118.1,41,118.1,16.2,118.1,16.2z M149.4,39.5c-2.9-1.5-5.1-3.6-6.7-6.3c-1.6-2.7-2.4-5.7-2.4-9s0.8-6.4,2.4-9
	c1.6-2.7,3.9-4.8,6.7-6.3s6.1-2.2,9.7-2.2c3.6,0,6.8,0.8,9.7,2.2c2.9,1.5,5.1,3.6,6.7,6.3c1.6,2.7,2.4,5.7,2.4,9s-0.8,6.4-2.4,9
	c-1.6,2.7-3.9,4.8-6.7,6.3s-6.1,2.2-9.7,2.2C155.5,41.8,152.2,41,149.4,39.5z M162.9,31.6c1.1-0.7,2-1.7,2.7-2.9
	c0.7-1.3,1-2.7,1-4.4c0-1.7-0.3-3.2-1-4.4c-0.7-1.3-1.6-2.2-2.7-2.9c-1.1-0.7-2.4-1-3.8-1c-1.4,0-2.7,0.3-3.8,1s-2,1.7-2.7,2.9
	c-0.7,1.3-1,2.7-1,4.4c0,1.7,0.3,3.2,1,4.4c0.7,1.3,1.6,2.2,2.7,2.9c1.1,0.7,2.4,1,3.8,1S161.7,32.3,162.9,31.6z M195.2,32.6h-3V41
	h-11.3V7.4H197c3.1,0,5.8,0.5,8.1,1.5s4.1,2.5,5.3,4.4s1.9,4.2,1.9,6.7c0,2.4-0.5,4.5-1.6,6.3s-2.6,3.2-4.7,4.3l7,10.3h-12
	L195.2,32.6L195.2,32.6z M199.6,17.2c-0.8-0.7-1.9-1-3.4-1h-4.1V24h4.1c1.5,0,2.7-0.3,3.4-1c0.8-0.7,1.1-1.7,1.1-2.9
	C200.8,18.9,200.4,17.9,199.6,17.2z"/>
</svg>
