<svg xmlns="http://www.w3.org/2000/svg" viewBox="0 0 291.5 109.7" style="enable-background:new 0 0 291.5 109.7" xml:space="preserve"><path d="M18.3 73.6c0 .9-.7 1.8-2.1 2.5.2.2.7.6 1.5 1.2v.3c0 1.1-.4 2.9-1.1 5.2-.7 2.3-1.1 4.2-1.1 5.4 0 .3 0 .7.1 1.1-.9.2-1.9.8-3.2 1.6-1.4.9-2.5 1.5-3.1 1.7v.3h-.6l.6-.3v-3.9c.3 0 .6-.2.7-.5l.1-.8-.1-.6c-.1-.2-.4-.4-.7-.5l.1-41.4 5.2-.6c1-.1 1.9.2 2.6 1 .8.8 1.1 1.7 1.1 2.5.1 0 0 25.8 0 25.8zm0 26.6c0 1.9-.2 3-.7 3.5-.8.1-2 .3-3.5.6-.8.6-2.1 1.4-4.2 2.5l.7.5H9.3V94.7c0-.9 1.5-1.3 4.5-1.3s4.5 2.3 4.5 6.8zm-7.8 0c0-.3-.2-.5-.6-.7-.3.2-.5.4-.5.7 0 .2.2.4.5.5.5-.1.6-.3.6-.5zm.2-16.9H10v.6l.7-.6zm2.1 16.9h-.4c-.8 0-1.6.4-2.4 1.2h.4c.8 0 1.6-.4 2.4-1.2zm-1.6-9.1c0-.2-.1-.5-.4-.6-.3.2-.5.4-.5.6 0 .3.2.4.5.5.2-.1.4-.3.4-.5zm0 3.6c0-.2-.1-.5-.4-.6-.3.2-.5.4-.5.6 0 .3.2.5.5.6.2-.1.3-.3.4-.6zm2.2 12.1-.8.2-.6-.2.1-.2.5-.2.7.2.1.2zm.6-18.1c0-.2-.2-.5-.5-.6-.3.2-.5.4-.5.6s.2.5.5.6c.3-.1.4-.3.5-.6zm.8 14.5-.6-1.2v1.2h.6zm0 2.9-.6-.6h.6v.6zm1.4-26.4c-.1-.1-.2-.1-.3-.1-.2 0-.4.2-.4.5l.1.1.5-.1c.1.1.1-.4.1-.4zm1.2 25.8c0 .2-.1.4-.4.6-.4-.1-.6-.3-.6-.6 0-.2.2-.4.6-.5.2.1.4.3.4.5zm2.8-31.8c0 .3-.1.5-.4.7-.3-.2-.5-.4-.5-.7 0-.2.2-.5.5-.6.2.1.4.3.4.6zm-.1 14.5c0 .2-.1.4-.4.6-.3-.1-.5-.3-.5-.6s.2-.5.5-.7c.3.2.4.4.4.7zm21.7 1.2-.8.5c-.3.7-.5 1.3-.6 1.8.5.5.7 1.2.7 2.2 0 .3-.2 1.3-.7 2.7.2.3.3.4.6.6-.4.2-1.4 1.6-2.8 4.1-1.2 2.1-2.7 3.2-4.3 3.2-.6 0-1.5-.2-2.6-.6s-2-.6-2.6-.6c-.5 0-1.2.2-2.2.6s-1.7.6-2.2.6c-.1 0-.5 0-1-.1l2.7-3.6h1.4c-.1-.2-.3-.4-.5-.5l-.8-.1-.7.1c-1.5 2.7-2.9 4.1-4.1 4.1v-.5h-1.4V99h3.4l-1.4 1.8c.9 0 2.5-.8 4.8-2.4s3.7-2.8 4.1-3.6l.1-35.7c0-2.1-1.3-3.7-3.8-4.9-2-.9-4.4-1.4-7.1-1.4V46c0-1.2 1.3-1.9 3.9-1.8 8 0 13 2.3 15 6.8.5 1 1.2 2.2 2.2 3.6 0 1.7-.1 2.6-.1 2.7 0 1.3.3 2.4.9 3.3v.6c0 .8-.1 2-.4 3.5-.3 1.5-.4 2.7-.4 3.5V71c.4.1.7.3.8.5v.2c0 .5-.1 1.3-.4 2.3-.3 1-.4 1.8-.4 2.3 0 .1.3.6.8 1.5v.2c0 .3-.1.8-.4 1.4-.4.7-.5 1.2-.5 1.6l.8.6v.2c0 .2-.1.5-.4.9-.3.4-.4.7-.4.9 0 .3.1.8.4 1.4.3.6.4 1.1.4 1.4l-.8 1.2v.6l.8.6v.6zM21.1 59.2h-.8v-.5h.8v.5zm-.1 46.3-.3.2-.4-.2.4-.2.3.2zm1.2-14.9c0 .3-.1.5-.4.6-.4-.2-.5-.4-.5-.6 0-.3.2-.5.5-.7.3.1.4.4.4.7zM23 45c0-.3-.2-.6-.5-.7-.3.1-.4.4-.4.7 0 .2.1.4.4.5.4-.1.5-.3.5-.5zm-.1 52.7c0 .2-.2.5-.5.6-.3-.2-.4-.4-.4-.6s.1-.4.4-.6c.3.2.5.4.5.6zm1.5 8.6h-.2c-1 0-1.6-.3-1.9-.8h2.1v.8zm2.6-.7c0 .3-.2.4-.5.6-.3-.1-.5-.3-.5-.6 0-.2.2-.4.5-.5.4 0 .5.2.5.5zm1.4-4.2c0-.3-.1-.5-.4-.7-.3.2-.4.4-.4.7 0 .2.1.4.4.6.2-.2.4-.4.4-.6zm1.6-3.7h-.7v.6l.7-.6zm1.2-1.1c0-.2-.2-.5-.5-.6-.3.2-.4.4-.4.6 0 .3.1.4.4.6.3-.2.5-.4.5-.6zm1.1-5.1-.2-.3-.3.3.3.2.2-.2zm0 10.8-.2-.3-.3.3.3.2.2-.2zm1-8.7c0-.3-.2-.5-.6-.7-.3.1-.4.3-.4.7 0 .2.1.4.4.5.4 0 .6-.2.6-.5zm0 12c0 .2-.2.4-.6.6-.3-.1-.4-.3-.4-.6s.2-.4.4-.5c.4 0 .6.2.6.5zm.7-13.8c0-.3-.2-.5-.5-.6-.4.1-.6.3-.6.6s.2.4.6.6c.3-.1.5-.3.5-.6zm6.2-11.5c0-.3-.1-.4-.4-.5-.4.1-.7.3-.7.5 0 .3.2.5.7.6.2-.1.4-.3.4-.6zm.2-5.9v-.7h-.6v.7h.6zm2.4 19.3c0 .2-.2.4-.4.5-.3-.1-.4-.3-.4-.5 0-.3.2-.5.4-.7.3.1.4.3.4.7zm1.1-38-.8.3-.6-.3.2-.2c.1 0 .3-.1.4-.1l.7.1c-.1.1.1.2.1.2zm.3 38c0 .2-.2.4-.4.5-.4-.1-.6-.3-.5-.5 0-.3.2-.5.6-.7.2.1.3.3.3.7zm11.4 12.5c0 .4-.1.8-.3 1.1-.4.1-.7.1-1 .1l-.8-.1-.6-.4h-5.5l.2-61.5c1.8-.2 4.5-.3 8.2-.6V58c0 .2-.1.5-.3.6-.5 0-1 .1-1.5.2-.1.3-.2.7-.2 1 .5.5.7 1.2.6 1.8l1.4-.6c-.1.1-.2 45.2-.2 45.2zm-5.4-38h-2.1v.8c.7-.1 1.4-.4 2.1-.8zm.6-8.9c0-.2-.2-.5-.5-.6-.3.1-.4.3-.4.6s.2.5.4.6c.3-.1.4-.3.5-.6zm.6 5.5c0-.2-.2-.5-.5-.7-.4.2-.5.4-.5.7 0 .2.2.5.5.6.4-.2.5-.4.5-.6zm2.1-7.3c0-.4-.2-.6-.7-.5 0-.3-.2-.6-.6-.7-.3.2-.4.4-.4.7 0 .2.1.4.4.5h.2l.6.6c.3-.2.5-.4.5-.6zm-.7 9.6c0-.3-.2-.5-.6-.7-.3.1-.4.3-.4.7 0 .3.1.5.4.6.4-.1.6-.3.6-.6zm-.2 2.7-.4-.3-.3.3.3.2.4-.2zm.2-12.9c0 .3-.2.5-.4.5 0-.3.2-.4.4-.5zm4.8 6c0 .3-.1.5-.4.6-.4-.2-.5-.4-.5-.6 0-.3.2-.5.5-.7.3.2.4.5.4.7zm0 4.8c0 .2-.2.4-.4.5-.4-.1-.5-.3-.5-.5 0-.3.2-.5.5-.6.3.1.4.3.4.6zm0 14.4c0 .3-.2.5-.4.7-.4-.2-.5-.4-.5-.7 0-.2.2-.4.5-.6.2.2.4.4.4.6zm0 4.9c0 .3-.2.5-.4.6-.4-.1-.5-.3-.5-.6 0-.2.2-.5.5-.6.2.2.4.4.4.6zm0 4.8c0 .3-.2.5-.4.6-.4-.1-.5-.3-.5-.6 0-.2.2-.4.5-.5.2.1.4.2.4.5zm18.2-44c0 .9-.5 2.5-1.4 4.8-1.9 0-4.6.1-8.3.3-3.7.2-6.4.3-8.3.3h-.9c0-3.8.3-6.9.9-9.2.1.5.5.8 1.1.8 2.5 0 3.9-.2 4.4-.8v.6c.3 0 .7-.1 1.2-.3s.9-.3 1.2-.3c.3 0 .6.1 1.2.4.5.2.9.4 1.2.4.3 0 .8-.1 1.4-.4.6-.2 1.1-.4 1.4-.4.2 0 .7.1 1.2.4.6.3 1 .4 1.2.4s.5-.2 1-.5.9-.5 1.4-.5v.4c0-.1-.2.4-.7 1.7.2.2.8 1.9.8 1.9zm-5.6 23.9c0 2-.2 4.1-.7 6.3l-1.4 1.3h-.3c-.8 0-2.1-.1-3.7-.4-1.6-.2-2.8-.4-3.6-.4 0 0-.9.2-2.5.7-.7-.3-1.1-1.4-1.1-3 0-3 .3-5.1.8-6.2h4.2c.4 0 1 .1 1.7.3.8.2 1.3.3 1.7.3s.9-.1 1.5-.3c.7-.2 1.2-.3 1.5-.3 1.3.1 1.9.6 1.9 1.7zm5.5 29.8c0 .4-.3 1.4-.9 3s-1 2.6-1.3 3H63.2c-.5-.4-1.2-.7-2.2-.7-2 0-3.2.1-3.6.4l.3.3h-.6l.3-.3c-.3-.4-.4-.9-.4-1.4v-2.5c0-2 .2-3.8.7-5.5.5.4 2.1.7 4.6.7.5 0 .8-.2.9-.7h8.3c.2.3.4.5.7.7h.3c.4 0 .9-.1 1.6-.3.7-.2 1.2-.3 1.6-.3 0 0-.1 0-.1.1-.2.1-.3.2-.5.5l-.2.5c0 .3.1.7.4 1.2.3.6.4 1 .4 1.3zM58.4 55.1c0 .3-.2.4-.5.5-.3-.1-.4-.3-.4-.5 0-.3.2-.5.4-.7.3.2.5.4.5.7zM58.3 93c0 .2-.2.4-.5.6-.3-.1-.4-.3-.4-.6s.2-.5.4-.7c.3.2.5.4.5.7zm-.2-27.1-.3.6c-.2-.1-.3-.2-.3-.5v-.2c0-.3.1-.5.3-.5l.3.6zm2.3 4.8c0-.3-.2-.5-.6-.7-.3.2-.4.4-.4.7s.1.5.4.6c.4-.1.6-.3.6-.6zm3.5 29.6-.4-.4-.3.4.3.2.4-.2zm.7-1.9-.3-.3-.4.3.4.3.3-.3zM66 78l-.3-.2-.3.2.3.2.3-.2zm1.1 28.9c0-.3-.2-.6-.5-.7-.4.1-.5.4-.6.7 0 .2.2.4.6.5.4 0 .5-.2.5-.5zm.9-8.5c-.1-.2-.4-.3-.7-.3-.4 0-.6.1-.7.3l.7.3.7-.3zm.5 8.5c0-.3-.2-.6-.5-.7-.3.1-.4.4-.4.7 0 .2.1.4.4.5.3 0 .5-.2.5-.5zm3.5 0c0-.3-.2-.6-.5-.7-.3.1-.5.4-.5.7 0 .2.2.4.5.5.4 0 .5-.2.5-.5zm6.5-63.8h-.7v-.7h.7v.7zm11.3 16.3c0 4.5-.6 8.6-1.8 12l1.4-.5-.1 31.2c-.4.5-.6 1.1-.7 1.8.2.2.4.4.7.5v1.1c0 1.4-.8 2.1-2.4 2.1-.4 0-1.1-.1-1.9-.4-.8-.2-1.5-.4-1.9-.4h-1.8c-.3 0-.7.1-1 .2l.1.4h-.8l.7-.4-.7-5.6.2-55.9c2.4-.2 4-.7 4.9-1.2v.5c.6 0 1.4-.1 2.6-.4 1.1-.2 2-.3 2.5-.3v15.3zm-8.2 7.3c0-.2-.2-.5-.4-.6-.3.2-.5.4-.5.6s.2.5.5.6c.2-.2.4-.4.4-.6zm-.1 16.8c0-.3-.2-.5-.4-.6-.3.1-.5.3-.5.6s.2.5.5.6c.3-.1.4-.3.4-.6zm0 5.4c0-.2-.1-.5-.4-.6-.3.2-.5.4-.5.6s.2.5.5.6c.3-.2.4-.4.4-.6zm.9-42c0-.3-.2-.5-.6-.7-.3.2-.4.4-.4.7 0 .2.1.4.4.6.4-.2.6-.4.6-.6zm.8 26.3v-.5h-.7l.7.5zm3.2 8.5c0-.3-.2-.5-.5-.6-.3.1-.5.3-.5.6 0 .2.2.4.5.5.4-.1.5-.3.5-.5zm.7 11.4c0-.2-.2-.4-.5-.6-.3.1-.5.3-.5.6s.2.4.5.6c.3-.2.5-.4.5-.6zm.2-3.1v-.5l-.7 1.2c.3-.2.5-.4.7-.7zm.3-16.4c0-.3-.1-.6-.3-.9l-.3.1v.8l.1.7.3.2c.1-.3.2-.6.2-.9zm2.3-3.9c0 .2-.2.4-.5.5-.4-.1-.6-.3-.6-.5 0-.3.2-.4.6-.6.3.1.5.3.5.6zm1.4-6c0 .2-.2.4-.5.6-.3-.2-.4-.3-.4-.6s.2-.5.4-.7c.3.2.5.4.5.7zm16.8-17.5v3.4c0 1.9-.3 3-.8 3.2H91.5l-.7-.6c-.1-1-.1-1.7-.1-1.9 0-2.9.6-4.6 1.8-5.2.9-.4 2.5-.7 4.9-.7h1L97 45h2.8c-.4-.2-.6-.4-.5-.6 0-.2.2-.5.6-.6.3.1.5.3.5.6 0 .2-.2.5-.5.6h1.3c-.3-.2-.4-.4-.4-.6 0-.2.2-.4.4-.6.4.1.5.3.5.6 0 .2-.2.5-.5.6h6.2c.2.2.4.5.7 1.2zm-4.1 24-.2.8c-.7.8-1.1 1.8-1.4 2.9l.2.5.4.2c-.2 0-.5.2-.7.4l-.1.6.1.7 1.4-.7v.7c0 .9-.2 1.6-.7 1.8H90.6v-6.6c.3-.3 2.3-.5 6.2-.5.8 0 2-.1 3.5-.4 1.7-.3 2.9-.4 3.7-.4zm-11.4-4.1c0 .2-.2.4-.4.5-.4-.1-.5-.3-.6-.5 0-.3.2-.5.6-.6.3.1.4.3.4.6zm1 6.6-1.4-.7v.7l.6.5.8-.5zm1.8 1.8c0-.3-.2-.6-.6-.7l-.2.1c0-.2-.2-.5-.4-.6-.4.2-.6.4-.6.6 0 .3.2.5.5.7l.2-.1c0 .3.1.5.4.6.5-.1.7-.3.7-.6zm0-1.8c0-.3-.2-.6-.6-.7-.3.2-.4.4-.4.7 0 .3.2.4.4.5.4 0 .6-.2.6-.5zm-.7 1.2c0 .2-.1.4-.3.6 0-.3.1-.4.3-.6zm1.6 5.4-.8.3-.7-.3.1-.2.6-.1.6.1.2.2zm6.7-1.7c0-.3-.2-.6-.5-.7-.3.1-.4.4-.4.7 0 .2.1.4.4.5.3-.1.5-.3.5-.5zm17.5 28.7c0 .4-.1.8-.3 1.1-.4.1-.7.1-1 .1l-.8-.1-.6-.4h-5.5l.2-61.5c1.8-.2 4.5-.3 8.2-.6v13.2c0 .2-.1.5-.3.6-.5 0-1 .1-1.5.2-.2.3-.2.7-.2 1 .5.5.7 1.1.6 1.8l1.4-.6c-.1.1-.2 45.2-.2 45.2zm-5.4-37.9H113v.8c.7-.1 1.4-.4 2.1-.8zm.5-8.9c0-.2-.2-.5-.5-.6-.3.1-.4.3-.4.6s.2.5.4.6c.4-.2.5-.4.5-.6zm.7 5.4c0-.2-.2-.5-.5-.7-.4.2-.6.4-.6.7 0 .3.2.4.6.6.3-.2.5-.3.5-.6zm2.1-7.3c0-.4-.2-.6-.7-.5 0-.3-.2-.6-.6-.7-.3.2-.4.4-.4.7s.2.4.4.5h.2l.6.6c.3-.1.5-.3.5-.6zm-.7 9.7c0-.3-.2-.5-.6-.7-.3.1-.4.3-.4.7 0 .3.1.5.4.6.4-.1.6-.3.6-.6zm-.2 2.7-.4-.3-.3.3.3.2.4-.2zm.2-12.9c0 .3-.2.5-.4.5 0-.3.2-.5.4-.5zm4.8 6c0 .3-.2.5-.4.6-.4-.2-.5-.4-.5-.6 0-.3.2-.5.6-.7.2.2.3.4.3.7zm0 4.8c0 .2-.2.4-.4.5-.4-.1-.6-.3-.6-.5 0-.3.2-.5.6-.6.3.1.4.3.4.6zm0 14.4c0 .3-.2.5-.4.7-.4-.2-.6-.4-.6-.7 0-.2.2-.4.6-.6.2.1.4.3.4.6zm0 4.9c0 .3-.2.5-.4.6-.4-.1-.6-.3-.6-.6s.2-.5.6-.6c.2.1.4.3.4.6zm-.1 4.7c0 .3-.2.5-.4.6-.4-.1-.6-.3-.6-.6 0-.2.2-.4.6-.5.3.1.4.3.4.5zM140.7 48c0 .9-.5 2.5-1.4 4.8-1.9 0-4.6.1-8.3.3s-6.4.3-8.2.3h-.9c0-3.8.3-6.9.9-9.2.1.5.5.8 1.1.8 2.4 0 3.9-.2 4.4-.8v.6c.3 0 .7-.1 1.2-.3s.9-.3 1.2-.3.6.1 1.1.4c.5.3.9.4 1.2.4s.8-.1 1.4-.4c.6-.2 1.1-.4 1.4-.4.3 0 .7.1 1.2.4.6.3 1 .4 1.2.4s.5-.2 1-.5.9-.5 1.4-.5v.4c0-.1-.2.4-.7 1.7l.8 1.9zm-5.6 23.9c0 2-.2 4.1-.7 6.3l-1.4 1.3h-.3c-.8 0-2.1-.1-3.7-.4-1.6-.2-2.8-.4-3.6-.4 0 0-.9.2-2.5.7-.7-.3-1.1-1.3-1.1-3 0-3 .3-5.1.8-6.2h4.2c.4 0 1 .1 1.7.3.8.2 1.3.3 1.7.3s.9-.1 1.5-.3 1.2-.3 1.5-.3c1.3 0 1.9.6 1.9 1.7zm5.5 29.8c0 .4-.3 1.4-.9 3-.6 1.6-1 2.6-1.3 3h-10.3c-.5-.4-1.2-.7-2.2-.7-2 0-3.2.1-3.6.4l.3.3h-.6l.3-.3c-.3-.4-.4-.9-.4-1.4v-2.5c0-2 .2-3.8.7-5.5.5.4 2.1.7 4.6.7.5 0 .8-.2.9-.7h8.3c.1.3.4.5.7.7h.3c.4 0 .9-.1 1.6-.3.7-.2 1.2-.3 1.6-.3h-.1c-.2.1-.4.3-.5.5l-.1.7c0 .3.1.7.4 1.2.2.5.3.9.3 1.2zm-17.4-46.4c0 .3-.2.4-.5.5-.3-.1-.4-.3-.4-.5 0-.3.1-.5.4-.7.4.1.5.4.5.7zm0 37.9c0 .2-.2.4-.6.6-.3-.1-.4-.3-.4-.6s.1-.5.4-.7c.4.2.6.4.6.7zm-.2-27.1-.3.6c-.2-.1-.3-.2-.3-.5V66c0-.3.1-.5.3-.5l.3.6zm2.3 4.8c0-.3-.2-.5-.6-.7-.3.2-.4.4-.4.7s.2.5.4.6c.4-.1.6-.3.6-.6zm3.5 29.6-.4-.4-.3.4.3.2.4-.2zm.7-1.9-.3-.3-.4.3.4.3.3-.3zm1.4-20.5-.3-.2-.3.2.3.2.3-.2zm1.1 29c0-.3-.2-.6-.5-.7-.4.1-.5.4-.6.7 0 .2.2.4.6.5.4-.1.5-.3.5-.5zm.9-8.5c-.1-.2-.4-.3-.6-.3-.4 0-.6.1-.7.3l.7.3.6-.3zm.5 8.5c0-.3-.2-.6-.5-.7-.3.1-.4.4-.4.7 0 .2.1.4.4.5.3-.1.5-.2.5-.5zm3.5 0c0-.3-.2-.6-.5-.7-.3.1-.5.4-.5.7 0 .2.2.4.5.5.3-.1.5-.2.5-.5zm6.5-63.9h-.7v-.7h.7v.7zm16.1 57.9v2.6c0 1.6 0 2.4-.1 2.6-.2.9-.9 1.3-2.1 1.3-.3-.2-.8-.3-1.4-.5l-.7.5c-.4.1-.8.1-1.1.1-1.4 0-2.9-1-4.4-2.9-1.5-1.8-2.2-3.4-2.2-4.7h2.8l-.6-2.1c-.6.4-1.3.6-2 .6-2.1 0-3.1-1.5-3.1-4.5 0-.6 0-1.4.1-2.6v-2.7c0-3.1-.1-7.7-.2-14-.1-6.2-.2-10.9-.2-14 0-4.8 1.1-8.6 3.4-11.5 2.6-3.4 6.6-5 11.8-5v8.1c-2.3 1.7-3.8 3-4.4 4-.7 1.2-1.1 3-1.1 5.5l1.5 1.5c0 .2-.1.5-.4.8-.3.3-.4.6-.4.8 0 .1.3.6.8 1.5 0 .6-.2 1.5-.7 2.7s-.7 2.1-.7 2.7c.2.2.4.2.5.2.4-.3.6-.8.7-1.2.1.2.1.4.1.7s-.1.6-.3 1c-.4.3-.8.6-1.2.8 1 .8 1.5 1.8 1.5 3 0 .6-.3 1.5-.8 2.6s-.8 2-.8 2.6c0 2.3.5 3.8 1.4 4.4-.5 1.9-.8 4-.8 6.3 0 1.8.9 3.7 2.7 5.7h.1c.5.2.8.6.6 1.1.6.5 1.1 1.2 1.7 2zm-12.8-1.3c0 .2-.1.5-.4.7-.3-.2-.4-.4-.4-.7 0-.3.1-.5.4-.6.2.2.4.4.4.6zm3.6 1.2H149v.7l1.3-.7zm1.5-2.3-.4-.3-.3.3.3.3.4-.3zm2.6-7.2c0-.3-.2-.6-.5-.7-.3.2-.5.4-.5.7 0 .2.2.4.5.5.3-.1.4-.3.5-.5zm.8 9-.3-.3-.4.3.3.2.4-.2zm.7-39.7c0 .3-.2.5-.6.6-.3-.1-.5-.3-.5-.6s.2-.5.5-.7c.4.2.6.4.6.7zm.6 7.3c0 .3-.2.4-.5.5-.4-.1-.5-.3-.6-.5 0-.3.2-.6.6-.7.3.1.5.3.5.7zm1.3 30.8-.6-.8c-.3.2-.4.4-.4.6 0 .3.2.5.6.6-.1-.1.4-.4.4-.4zm.8-51.9c0-.3-.1-.6-.4-.7-.4.1-.6.4-.6.7s.2.4.6.5c.2-.1.4-.2.4-.5zm19 5.1-.2.4-.7.5v.6c.2.2.5.5.8.9l-.1.3c-.2.3-.4.5-.7.6v.6l.7.6c0 .1.1.2.1.4 0 .3-.3.5-.8.8v7l-4.1.2-.7.6c-.2 0-.4.1-.7.1s-.8-.1-1.3-.4-.8-.4-.9-.4c-.5 0-.9.1-1.3.2-.4-2.3-.8-4.6-1.4-6.9-.8-3.5-2.2-5.3-4.2-5.3h-.7l-.4-.1c-.2-.3-.3-.7-.3-1v-7.5c1.3 0 3.2.3 5.8 1 2.5.7 4.5 1 5.8 1 0 1.2.5 2.4 1.6 3.7 1.2 1.4 2.4 2.1 3.7 2.1zm-7.3 52.6c-.8 1-2 1.8-3.4 2.5l.7.5h-.2c-.2 0-.4.1-.5.1-.3 0-.5 0-.7-.1l-.6-.5c-.3.1-.8.3-1.5.5h-1.3c-1.2 0-1.9-.2-2.2-.5v-6.6c.6-.4 1.5-.7 2.9-.7l.6.7c.5-.3 1.2-.6 2.1-.8v.8l-2.7 1.2-.2.2.2.3c.4.3.9.4 1.4.5.4-.2.9-.3 1.4-.5.5 0 .8.5.8 1.5 0 .8-.3 1.3-.8 1.6h.7c.1 0 .6-.1 1.2-.4.6-.2 1.4-.3 2.1-.3zM166.8 47c0-.3-.1-.6-.4-.7-.3.1-.4.4-.4.7s.1.4.4.5c.3 0 .4-.2.4-.5zm.3-3.6h-.7v-.8h.7v.8zm.4 49.9c0 .3-.2.4-.6.6-.4-.1-.5-.3-.6-.6 0-.3.2-.5.6-.7.4.2.6.4.6.7zm9.4-1.2c0 1.9-.6 2.9-1.6 2.9l-.1.7c0 .3.2 1.3.7 3-.1.4-.4.8-.7 1.2l-.8-.6c0 .1 0 .2.1.3 0 .2-.1.5-.3.8-.4.2-.7.2-1 .2l-.7-.1 1.4-1.8c-.2.1-.4.1-.6.1-.6 0-2.3-.6-5-1.9l.3-.4.4-.2c1.4.4 2.3.6 2.6.7 1.1 0 1.8-.4 2.3-1.3h-.7c-.3 0-.7.2-1.4.6v-.6h-1.1c0-1.1-.6-1.9-1.6-2.4l2.1-1.2h-2.1l1.4-1.2c0-.2-.1-.3-.2-.5l-.4-.1-2.8.6v-4.8h4.2l-.5.2-.3.4c0 .8.4 1.4 1.4 2 .8.5 1.6.7 2.6.7 0 .3-.1.7-.2 1.1-.4.4-.8.7-1.1.9-.1.2-.2.5-.2.8l3.9-.1zm-8.6 3-.6.6-.4.1-.3-.1c.4-.4.8-.7 1-.7 0 0 .1.1.3.1zm0 5.5c-.2.2-.4.4-.6.5l-.4.1-.3-.1 1.3-.5zm0-10.9v-1.2l-.6.6.6.6zm1.4-23.4c0 .2-.2.4-.6.5-.3-.1-.5-.3-.5-.5 0-.3.2-.5.5-.7.4.1.6.4.6.7zm-.1 20.4c0-.2-.2-.5-.6-.6-.3.2-.5.4-.5.6s.2.4.5.5c.4-.1.6-.3.6-.5zm-.2 16.5-.4.4-.3-.4.3-.3.4.3zm.9-44.1c0-.3-.1-.5-.4-.7-.4.2-.6.4-.6.7s.2.4.6.5c.2-.1.4-.3.4-.5zm.6 34.2c0-.3-.2-.5-.6-.7-.3.2-.4.4-.4.7 0 .3.1.4.4.6.4-.2.6-.3.6-.6zm.7 7.3c0 .2-.2.4-.5.5-.4-.1-.6-.3-.6-.5 0-.3.2-.5.6-.7.3.2.5.4.5.7zm.6-7.3c0-.3-.1-.5-.4-.7-.3.2-.5.4-.5.7 0 .2.2.4.5.6.3-.2.4-.3.4-.6zm.2 9-.7 1.2-.1-.4c.2-.3.4-.6.8-.8zm.6-7.8c0-.2-.2-.5-.5-.6-.3.2-.4.4-.4.6s.1.5.4.6c.3-.1.5-.3.5-.6zm2.7-9.2c0 1.2-.6 1.9-1.8 1.9-.4 0-.8-.2-1.4-.5.6-.9 1.7-1.4 3.2-1.4zm-1.4 12.3c0-.2-.1-.5-.4-.6-.4.2-.6.4-.6.6 0 .3.2.4.6.5.2-.1.4-.3.4-.5zm.3-36.8v-.6l-.6.6h.6zm.5 33.7c0-.2-.2-.5-.6-.6-.3.2-.4.4-.4.6s.1.5.4.6c.4-.1.6-.3.6-.6zm.9-4.2-.7.6v-.6h.7zm.6-1.8h-.6v-.6l.6.6zm.5-1.8c0 .2-.2.4-.6.5-.3-.1-.4-.3-.4-.5 0-.3.1-.5.4-.6.4.1.6.3.6.6zm1.3 0c0 .2-.1.4-.4.5-.3-.1-.5-.3-.5-.5s.2-.5.5-.6c-.3-.1-.5-.3-.5-.6s.2-.4.5-.6c.3.1.4.3.4.6s-.1.5-.4.6c.3.1.4.3.4.6zm35.5-41.4c0 4-.5 6.5-1.4 7.7l-31.7-.1v-7.5c.6 0 1.4-.2 2.4-.5s1.8-.5 2.4-.5c.3 0 .8.1 1.4.4.6.2 1 .4 1.1.4.6 0 1.2-.2 1.8-.7l.2.1c.5-.1 1.3-.2 2.5-.2l.9.2.5.6h5.4c.4-1 .9-1.5 1.5-1.5v1.5h4.8c.1-.5.9-.8 2.4-.8.4 0 .9.1 1.5.4.6.3 1.2.4 1.5.4 1.4-.5 2.3-.8 2.8-.8h.1l-.1.9zm-27.2-.1c0-.3-.1-.5-.4-.7-.4.2-.6.4-.6.7s.2.4.5.5c.4-.1.5-.2.5-.5zm3.5 0-.3-.6-.7.2c0 .1-.1.2-.1.4 0 .3.2.4.7.5.3 0 .4-.2.4-.5zm1.5 0c0-.3-.2-.5-.6-.7-.3.2-.5.4-.5.7s.2.4.5.5c.4 0 .6-.2.6-.5zm12 45.1h-2.5l-.1 17.5h-5.4c-.3-.4-.7-.6-1-.6-.1 0-.5.1-1 .3s-.9.4-1.2.3c-.6 0-1-.1-1.4-.4-.1-.6-.2-1.2-.2-1.8l.1-50.9.8-.5 2.5-.1h1.9c2.4 0 4.2.2 5.1.6l-.1 19.3.4.2.3.4v.4c0 .4-.1 1-.4 1.7s-.4 1.4-.4 1.8c0 .6.2 1 .8 1.1l-.8.5v9c1.8.3 2.6.7 2.6 1.2zm-10.8-45.1c0-.3-.2-.5-.5-.7-.3.2-.4.4-.4.7s.1.4.4.5c.4 0 .5-.2.5-.5zm.7 62c0-.3-.2-.6-.7-.7-.3.1-.4.4-.4.7 0 .2.1.4.4.5.5 0 .7-.2.7-.5zm1.3-21.7c0-.2-.2-.4-.5-.6-.3.1-.4.3-.4.6s.1.5.4.6c.3-.1.5-.3.5-.6zm9.8-31.3c0 .2-.1.4-.4.5-.4-.1-.6-.3-.6-.5s.2-.4.6-.6c.2.2.4.4.4.6zm.5 12.1c0 .2-.1.4-.4.6-.3-.1-.4-.3-.4-.6 0-.2.1-.4.4-.6.3.1.4.3.4.6zm0 8.4c0 .2-.1.4-.4.5-.3-.1-.4-.3-.4-.5 0-.3.1-.5.4-.6.3.1.4.3.4.6zm0 6c0 .3-.1.5-.4.6-.3-.1-.4-.3-.4-.6 0-.2.1-.5.4-.6.3.2.4.4.4.6zm24.8 27.2c-9.7-2.6-14.5-7.6-14.5-15.1l.1-36.8c0-3.4 1.2-5.1 3.7-5 0-2 .5-3.2 1.5-3.6.5-.2 1.9-.3 4.1-.4 1.6-.1 2.5-.6 2.9-1.7v-.6l.4-.5c.6-.1 1.2-.1 2-.1v8.1c-2.5 1.5-4 3.8-4.6 6.9-.2 1.1-.3 3.9-.4 8.2v10c0 6.4.2 10.1.7 10.8.3.5.8 1.3 1.5 2.4-.5.5-1.2 1.3-2.1 2.4.4 1 1.1 2.2 2.3 3.7 1.4 1.7 2.2 2.8 2.6 3.5l-.2 7.8zm-8.6-57.4v-.2c0-.3-.1-.6-.3-.9l-.3.2-.1.8.1.6.3.2c.2-.2.3-.5.3-.7zm3.5 19.2-.3-.3-.3.3.3.2.3-.2zm.7 20.7c0-.2-.2-.4-.5-.5-.3.1-.4.3-.4.5 0 .3.1.5.4.6.4-.1.5-.3.5-.6zm1.5 3c0 .3-.1.4-.4.6-.4-.1-.5-.3-.5-.6s.2-.5.6-.7c.1.2.3.4.3.7zm.5-34.5-.2.2-.4-.3.4-.3.2.4zm.9 21.3c0 .2-.2.4-.6.5-.3-.1-.4-.3-.4-.5 0-.3.1-.4.4-.5.4 0 .6.2.6.5zm.7-1.2c0 .3-.2.5-.5.7-.3-.2-.5-.4-.5-.7 0-.2.2-.5.5-.6.3.1.5.3.5.6zm-.1 10.2c0 .3-.2.5-.5.6-.3-.2-.5-.4-.5-.6s.2-.5.5-.6c.4.2.5.4.5.6zM248.7 70l-.7.5v26.6c-.8.7-2 2.2-3.6 4.6-1.2 1.8-2.8 3.2-4.8 4.3-1.6.9-3 1.3-4.1 1.3-.9 0-2.3-.2-4.1-.7 0-.3 0-.8-.1-1.5 0-.7-.1-1.1-.1-1.4 0-1.6 1.1-3.5 3.4-5.6 2.2-2.1 3.4-3.9 3.4-5.3l.1-25.2c.4-.2.8-.4 1-.7-.1-.3-.4-.7-.8-1.2-.4-8.6-2.1-12.9-4.9-12.9-.4 0-.8 0-1.1.1l.7-.5-1.4-1.8V44h3.5c.6.6.8 1.6.6 3.1l.6-.6.5-1.7.6-.3.4.1c.3.5.6 1.1.7 1.8l.8-1.2 4.1.5c-.1.3-.4 1-.9 2-.4.9-.6 1.6-.5 2.2-.6-.5-1.3-.7-2.4-.7-.3 0-.7.1-1.2.2-.3.3-.5.7-.5 1 0 1.2.9 1.8 2.8 1.8.5 0 1.2-.1 2.1-.3.9-.2 1.6-.3 2.1-.2l.6.5c1.2 0 1.9-.6 2-1.8 0 1-.1 1.5-.1 1.6 0 .9.2 2.3.8 4 .5 1.8.8 3.1.8 4s-.3 2.2-.8 4c-.5 1.8-.8 3.1-.8 4-.2.9.3 1.5 1.3 2zm-10.4-16.3V53h-.6l.6.7zm0 1.1-.2-.2-.4.2.3.3.3-.3zm1 20.6-.3-.6-.3.1-.1.5.1.5.3.1.3-.6zm1.5-20.1-.3-.4-.3.3.3.4.3-.3zm3.1-4.6c-.3-.1-.5-.2-.7-.4l-.1-.8.1-.5c.2 0 .5.2.7.4l.1.8-.1.5zm1.3 25.3-.4-.3-.2.3.2.3.4-.3zm.3-1.4-.3-.4-.3.3.3.3.3-.2zm1.6-4.6c0-.3-.1-.5-.4-.6-.3.1-.5.3-.5.6 0 .2.2.4.5.5.2-.1.4-.2.4-.5zm0 3.6c0-.2-.1-.4-.4-.6-.3.1-.5.3-.5.6 0 .2.2.4.5.6.2-.1.4-.3.4-.6zm.4 2.4c0-.5-.3-.9-.8-1.2V76h.8zm1.7-20.4c0 .2-.1.4-.4.5-.4-.1-.6-.3-.5-.5 0-.3.2-.6.6-.7.2.1.3.4.3.7zm15.2 34.8c-.8 0-2 .5-3.7 1.3l1.4.5c0 .5 0 1-.1 1.6 0 1.4.2 2.1.7 2.1v7.2c.4.2.9.4 1.5.7v.2l-.1.3c-1 .9-2.4 1.9-3.9 2.9-.1.1-2.3.1-6.4.1-.3.2-.5.4-.7.5h-.8l.8-20.5 2.1-1.8h-.9l-.5-.5.6-.6h-1.7c0-1.1.2-2.7.4-4.8 0-.2.3-.7.7-1.3h-.6c0-2.8-.1-6.9-.4-12.5-.3-5.6-.4-9.8-.4-12.5v-8c.9-.5 1.9-.8 2.8-.8l.7.1c-1.3.1-2 .8-2 2 0 .1 0 .6.1 1.5h.4l1.4-2.4h.4c0 1.4.6 2.2 1.7 2.4.4-.1.9-.3 1.4-.6h2.7c.2-.4.7-1 1.5-1.8v7.9c-.4.3-.6.7-.8 1.2l.4.4.4.2c-.7 5.8-1 11-.9 15.6-.4.1-.9.3-1.4.6.4.2.5.4.5.6 0 .3-.2.5-.5.7l-.4-.4v.5c1.8 0 2.7 1.1 2.7 3.2 0 .3-.1.7-.4 1.3-.3.6-.4 1-.4 1.3 0 .5.3 1.3.8 2.5l-.4.1-.4-.1c-.3-.4-.5-.8-.6-1.2h-5.5c1 1.6 3 2.4 6.1 2.4.3 0 .6 0 .9-.1-.4.5-.7.9-.8 1.2.2.3.5.5.8.7v4.2c.4.3.7.9.8 1.9zm-10.7-4.1c0 .2-.2.5-.5.6-.4-.2-.6-.4-.6-.6s.2-.5.6-.6c.3.1.5.3.5.6zm.7-21.1c0-.2-.1-.5-.4-.7-.4.2-.6.4-.6.7 0 .3.2.4.5.6.3-.1.5-.3.5-.6zm0 4.9c0-.3-.1-.5-.4-.6-.4.1-.5.3-.6.6 0 .3.2.4.6.5.2-.1.4-.3.4-.5zm.6 5.9c0-.2-.2-.5-.5-.6-.3.2-.4.4-.4.6 0 .3.1.5.4.7.3-.2.5-.4.5-.7zm3-4.2h-.7l-.8.1c-.3.2-.5.3-.5.5h.7c.1 0 .5-.2 1.3-.6zm-.8-4.8c0-.2-.2-.5-.5-.6-.3.2-.4.4-.4.6 0 .3.1.5.4.6.3-.1.5-.3.5-.6zm-.3-2.1-.3-.3-.3.3.3.2.3-.2zm0 12-.3-.3-.3.3.3.2c0 .1.3-.2.3-.2zm-.1 5.4-.3-.3-.3.3.3.2c.1.1.3-.2.3-.2zm.5-3.3-.3-.2c-.3 0-.4.1-.4.2l.3.3.4-.3zm.5 10.9c0-.3-.2-.5-.5-.7-.3.2-.5.4-.5.7 0 .2.2.4.5.5.3-.1.5-.2.5-.5zm.2 4.2-.3-.1c-.3 0-.5.2-.5.5l.1.2.6-.1.1-.5zm.4-1.2c0-.2-.1-.5-.4-.7-.4.2-.5.4-.5.7 0 .2.2.4.5.6.3-.1.4-.3.4-.6zm.8-20.5c0-.2-.2-.5-.5-.6-.3.2-.5.4-.5.6s.2.5.5.7c.3-.2.5-.4.5-.7zm.2 4.3-.3-.2-.4.2.3.2.4-.2zm.5-9.1c0-.3-.2-.5-.5-.7-.4.1-.5.3-.5.7 0 .3.2.5.5.6.3-.1.5-.3.5-.6zm0 11.5c0-.2-.2-.5-.5-.6-.4.2-.5.4-.5.6 0 .3.2.5.5.7.3-.2.5-.5.5-.7zm.1 15-.4-.2c-.2 0-.3.1-.3.2l.3.2.4-.2zm.3-16.6-.2-.3-.4.3.4.4.2-.4zm1-12.2c0-.2-.2-.5-.5-.7-.3.2-.5.4-.5.7 0 .3.2.4.5.6.3-.2.5-.4.5-.6zm1.3 3.5c0-.2-.2-.5-.5-.6-.3.2-.5.4-.5.6s.1.5.5.6c.4-.1.5-.3.5-.6zm0 9.1c0-.3-.2-.6-.5-.7-.3.2-.5.4-.5.7 0 .2.2.4.5.5.3-.1.5-.3.5-.5zm.7 15.6c0 .2-.2.4-.6.6-.3-.1-.4-.3-.4-.6s.1-.5.4-.7c.4.2.6.4.6.7zm.2 1.2h-.8l.8-.6v.6zm24.1 9.7-.6-.1c-.5 0-1.2.6-2 1.9-.8 1.2-1.4 1.9-2 1.9 0-.6-.3-1-.9-1.3-.2.8-.9 1.2-2.1 1.2h-2.7c-2.2 0-3.3-.4-3.3-1.2 0-.3.2-.7.5-1.1-1.5-5.3-3.5-13.1-6.1-23.5h-2.7c.6-.2 1.3-.7 2.1-1.3H265V75l.3-.6h-.3c-.3-.1-.4-.3-.4-.6s.1-.5.4-.6c.6.1.8.4.5.9 1.5-1 4.4-1.6 8.8-2.1-.6-.1-.9-.6-.9-1.5 0-.8.2-2 .7-3.5s.7-2.7.7-3.5c0-6.2-3.2-9.6-9.7-10.2V46c3.2-.2 5.5-.5 7-1.2v1c5.5 0 8.2 1.3 8.2 3.8 0 .2-.1.5-.4 1s-.4.7-.4.9c0 .5.1.7.4.7.4 0 .7-.1 1-.2v-1h1c0 1-.5 1.8-1.5 2.3.4-.2.8-.3 1.1-.3 2.6 0 4 4.1 4.3 12.4l1.4 1.2c-1.4.3-2.5 1.7-3.4 4.2-.5 1.6-1.2 3.4-2.1 5.4-.9.7-1.8 1.4-2.6 2.1-1.2.9-1.8 1.8-1.8 2.4 0 .8 1 1.9 2.9 3.3l-.4.2-.3.4c1 1.5 1.7 2.9 2.1 4.3.1.4.2 1 .3 1.8.2 1.4.5 2.7.7 3.9.4 2.3 1.3 4 2.5 5l.1.2c-.2.4-.5.9-.9 1.6v.3c-.2.9 1 1.8 3.3 2.7zm-22.2-10.3c0 .3-.2.4-.6.6-.3-.1-.4-.3-.4-.6s.1-.4.4-.6c.4.2.6.4.6.6zm.2-27.7-.4.3-.3-.3.4-.2.3.2zm.5-10.2c0 .3-.2.5-.5.6-.3-.1-.5-.3-.5-.6s.2-.5.5-.6c.4.1.5.3.5.6zm0 19.8c0-.2-.2-.5-.5-.6-.3.2-.5.4-.5.6 0 .3.2.5.5.7.3-.2.5-.4.5-.7zm6.9 12.1c0-.3-.2-.5-.5-.7-.3.2-.4.4-.4.7 0 .3.1.5.4.6.3-.1.5-.3.5-.6zm.5.9-.4-.3-.3.3.3.3.4-.3zm.8-11.7c0-.2-.1-.5-.4-.6-.4.2-.5.4-.5.6s.2.5.5.6c.3-.1.4-.3.4-.6zm1.6 10.8c-.1-.2-.3-.4-.5-.6l-.9-.1h-.7c.1.4.4.9.6 1.3h.7c.4-.2.6-.4.8-.6zm-.9 6c0-.3-.2-.4-.5-.6-.3.1-.4.3-.5.6 0 .3.1.4.4.6.4-.1.6-.3.6-.6zm.7-1.8c0-.2-.2-.4-.6-.5-.3.1-.5.3-.5.5 0 .3.2.5.5.6.4-.1.6-.3.6-.6zm.6-27.9-.3-.3-.3.3.3.2.3-.2zm2.4-11.2c-.1 0-.2-.1-.4-.1h-.2c-.2.1-.5.3-.8.7h.7l.7-.6zm-.2 18.7c0-.3-.1-.5-.4-.7-.4.1-.6.3-.6.7 0 .2.2.4.5.5.3 0 .5-.2.5-.5zm.6 16.9c0-.2-.2-.5-.5-.6-.3.2-.4.4-.4.6 0 .3.1.4.4.6.4-.2.5-.4.5-.6zm.8-12.7c0-.2-.2-.5-.5-.6-.3.2-.4.4-.4.6 0 .3.1.5.4.7.3-.2.5-.5.5-.7zm3-15c-.7 0-1.3.4-2 1.2-.5.6-1 1.2-1.5 1.9h.4c1.6-.1 2.6-1.1 3.1-3.1zm-2.8 10.8h-.7v.6l.7-.6zm.4 1.2c0-.3-.1-.5-.4-.7-.3.2-.5.4-.5.7 0 .2.2.4.5.5.2 0 .4-.2.4-.5zm-.1 34.4c0-.3-.1-.6-.4-.7-.3.1-.5.4-.5.7l.3.5h.3l.3-.5zm.9-36.8c0-.2-.2-.4-.5-.6-.4.1-.6.3-.5.6 0 .3.2.5.5.6.3-.2.5-.4.5-.6zm.7-22.3c0 .3-.1.5-.4.7-.4-.2-.5-.4-.5-.7 0-.2.2-.5.5-.6.3.1.4.3.4.6zm.6 23.6c0-.3-.1-.5-.4-.7-.3.1-.4.3-.4.7 0 .2.1.4.4.5.2-.1.4-.3.4-.5zm-.1 18c0 .2-.1.4-.4.5-.3-.1-.4-.3-.4-.5 0-.3.1-.5.4-.7.3.2.4.4.4.7zm4.2 6c0 .3-.2.4-.5.5-.3-.1-.4-.3-.4-.5 0-.3.1-.5.4-.6.3.1.5.3.5.6zm1-38c-.1.2-.4.3-.7.3l-.8-.3.2-.1.6-.1.5.1.2.1z" style="fill:#c00"/><path d="M30.1 7.4s1.5-3.5 2.2-4.9c.2-.4 1-1.7.9-1.5-1.7 3.2-.3 6.3-.3 6.4s.1.1.1.1h8.2L27 41H15.9L1.8 7.4h12.1s5 14.2 6.1 17.4c.1.3.6 1.8.7 1.8.8 5.2-1.3 9.5-1.3 9.5s2.3-.6 3-3.9c.5-3.8.2-4.6.2-4.6l7.5-20.2zM71 32.5V41H43.2V7.4h27.2V16H54.2v3.9h14.1V28H54.2v4.4l16.8.1zm10.8 7c-2.8-1.5-5.1-3.6-6.7-6.2-1.6-2.7-2.4-5.7-2.4-9.1s.8-6.4 2.4-9.1 3.8-4.7 6.7-6.2c2.8-1.5 6-2.2 9.5-2.2 3.2 0 6.1.6 8.7 1.7 2.5 1.2 4.6 2.8 6.3 5l-7.1 6.4c-2.1-2.6-4.5-3.9-7.3-3.9-2.4 0-4.3.8-5.7 2.3-1.4 1.5-2.1 3.6-2.1 6.1s.7 4.6 2.1 6.1 3.3 2.3 5.7 2.3c2.8 0 5.2-1.3 7.3-3.9l7.1 6.4c-1.7 2.2-3.8 3.8-6.3 5s-5.4 1.7-8.7 1.7c-3.5-.1-6.6-.9-9.5-2.4zm36.3-23.3h-9.8V7.5h30.8v8.8h-9.8V41H118c.1 0 .1-24.8.1-24.8zm31.3 23.3c-2.9-1.5-5.1-3.6-6.7-6.3-1.6-2.7-2.4-5.7-2.4-9s.8-6.4 2.4-9c1.6-2.7 3.9-4.8 6.7-6.3s6.1-2.2 9.7-2.2c3.6 0 6.8.8 9.7 2.2 2.9 1.5 5.1 3.6 6.7 6.3 1.6 2.7 2.4 5.7 2.4 9s-.8 6.4-2.4 9c-1.6 2.7-3.9 4.8-6.7 6.3s-6.1 2.2-9.7 2.2c-3.6.1-6.9-.7-9.7-2.2zm13.5-7.9c1.1-.7 2-1.7 2.7-2.9.7-1.3 1-2.7 1-4.4 0-1.7-.3-3.2-1-4.4-.7-1.3-1.6-2.2-2.7-2.9-1.1-.7-2.4-1-3.8-1s-2.7.3-3.8 1-2 1.7-2.7 2.9c-.7 1.3-1 2.7-1 4.4 0 1.7.3 3.2 1 4.4.7 1.3 1.6 2.2 2.7 2.9 1.1.7 2.4 1 3.8 1s2.6-.3 3.8-1zm32.3 1h-3V41h-11.3V7.4H197c3.1 0 5.8.5 8.1 1.5s4.1 2.5 5.3 4.4 1.9 4.2 1.9 6.7c0 2.4-.5 4.5-1.6 6.3s-2.6 3.2-4.7 4.3l7 10.3h-12l-5.8-8.3zm4.4-15.4c-.8-.7-1.9-1-3.4-1h-4.1V24h4.1c1.5 0 2.7-.3 3.4-1 .8-.7 1.1-1.7 1.1-2.9.1-1.2-.3-2.2-1.1-2.9z" style="fill:#fff"/></svg>